<?xml version="1.0" ?>
<!-- Created with Inkscape (http://www.inkscape.org/) -->
<svg height="269.63297" id="svg2" inkscape:output_extension="org.inkscape.output.svg.inkscape" inkscape:version="0.46" sodipodi:docname="ua_6.10_service-traffic_police.svg" sodipodi:version="0.32" version="1.0" width="190.00031" xmlns="http://www.w3.org/2000/svg" xmlns:cc="http://creativecommons.org/ns#" xmlns:dc="http://purl.org/dc/elements/1.1/" xmlns:inkscape="http://www.inkscape.org/namespaces/inkscape" xmlns:rdf="http://www.w3.org/1999/02/22-rdf-syntax-ns#" xmlns:sodipodi="http://sodipodi.sourceforge.net/DTD/sodipodi-0.dtd" xmlns:svg="http://www.w3.org/2000/svg">
	
	
	
	
  
	
	
	
	<metadata id="metadata7">
		
		
		
		
    
  
		
		
	
		
		
	
		
		
	
		<rdf:RDF>
			<cc:Work rdf:about="">
				
        
				<dc:format>
					image/svg+xml
				</dc:format>
				
        
				<dc:type rdf:resource="http://purl.org/dc/dcmitype/StillImage"/>
				
        
				<dc:title>
					 sign
				</dc:title>
				
        
				<cc:license rdf:resource="http://creativecommons.org/licenses/by-nc-sa/3.0/"/>
				
        
				<dc:creator>
					
            
					<cc:Agent>
						
                
						<dc:title>
							Artem Oliynyk
						</dc:title>
						
            
					</cc:Agent>
					
        
				</dc:creator>
				
        
				<dc:rights>
					
            
					<cc:Agent>
						
                
						<dc:title>
							Artem Oliynyk
						</dc:title>
						
            
					</cc:Agent>
					
        
				</dc:rights>
				
        
				<dc:identifier>
					http://azure.km.ua/ua-vector-signs/6_Service/ua_6.10_service-traffic_police.svg
				</dc:identifier>
				
        
				<dc:language>
					uk-UA
				</dc:language>
				
        
				<dc:date>
					2010-04-24
				</dc:date>
				
    
			</cc:Work>
			<cc:License rdf:about="http://creativecommons.org/licenses/by-nc-sa/3.0/">
				
        
				<cc:permits rdf:resource="http://creativecommons.org/ns#Reproduction"/>
				
        
				<cc:permits rdf:resource="http://creativecommons.org/ns#Distribution"/>
				
        
				<cc:requires rdf:resource="http://creativecommons.org/ns#Notice"/>
				
        
				<cc:requires rdf:resource="http://creativecommons.org/ns#Attribution"/>
				
        
				<cc:prohibits rdf:resource="http://creativecommons.org/ns#CommercialUse"/>
				
        
				<cc:permits rdf:resource="http://creativecommons.org/ns#DerivativeWorks"/>
				
        
				<cc:requires rdf:resource="http://creativecommons.org/ns#ShareAlike"/>
				
    
			</cc:License>
		</rdf:RDF>
	</metadata>
	
	
	
	
  
	
	
	
	<defs id="defs5">
		
		
		
		
    
		
		
		
		<inkscape:perspective id="perspective9" inkscape:persp3d-origin="372.04724 : 350.78739 : 1" inkscape:vp_x="0 : 526.18109 : 1" inkscape:vp_y="0 : 1000 : 0" inkscape:vp_z="744.09448 : 526.18109 : 1" sodipodi:type="inkscape:persp3d"/>
		
		
		
		
    
		
		
		
		<inkscape:perspective id="perspective2411" inkscape:persp3d-origin="372.04724 : 350.78739 : 1" inkscape:vp_x="0 : 526.18109 : 1" inkscape:vp_y="0 : 1000 : 0" inkscape:vp_z="744.09448 : 526.18109 : 1" sodipodi:type="inkscape:persp3d"/>
		
		
		
		
    
		
		
		
		<inkscape:perspective id="perspective109" inkscape:persp3d-origin="372.04724 : 350.78739 : 1" inkscape:vp_x="0 : 526.18109 : 1" inkscape:vp_y="0 : 1000 : 0" inkscape:vp_z="744.09448 : 526.18109 : 1" sodipodi:type="inkscape:persp3d"/>
		
		
		
		
    
		
		
		
		<inkscape:perspective id="perspective118" inkscape:persp3d-origin="372.04724 : 350.78739 : 1" inkscape:vp_x="0 : 526.18109 : 1" inkscape:vp_y="0 : 1000 : 0" inkscape:vp_z="744.09448 : 526.18109 : 1" sodipodi:type="inkscape:persp3d"/>
		
		
		
		
  
	
	
	
	</defs>
	
	
	
	
  
	
	
	
	<sodipodi:namedview bordercolor="#666666" borderopacity="1.0" gridtolerance="10.0" guidetolerance="10.0" id="base" inkscape:current-layer="svg2" inkscape:cx="127.42497" inkscape:cy="97.871938" inkscape:pageopacity="0.0" inkscape:pageshadow="2" inkscape:window-height="480" inkscape:window-width="640" inkscape:zoom="2.0000001" objecttolerance="10.0" pagecolor="#ffffff" showgrid="false"/>
	
	
	
	
  
	
	
	
	<g id="g2473">
		
		
		
		
    
		
		
		
		<g id="g3365" transform="matrix(0.9894239,0,0,0.9424637,1.0512629,-1.7965714)">
			
			
			
			
      
			
			
			
			<g id="g3357">
				
				
				
				
        
				
				
				
				<path d="M 20.761302,2.3941002 L 169.14016,2.3941002 C 180.96073,2.3941002 190.47692,11.705445 190.47692,23.271555 L 190.47692,266.61171 C 190.47692,278.17782 180.96073,287.48916 169.14016,287.48916 L 20.761302,287.48916 C 8.9407366,287.48916 -0.57545906,278.17782 -0.57545906,266.61171 L -0.57545906,23.271555 C -0.57545906,11.705445 8.9407366,2.3941002 20.761302,2.3941002 z" id="rect3292" style="fill:#ffffff;fill-opacity:1;fill-rule:nonzero;stroke:none;stroke-width:2;stroke-linecap:round;stroke-linejoin:miter;stroke-miterlimit:4;stroke-opacity:1"/>
				
				
				
				
        
				
				
				
				<path d="M 20.75,1.90625 C 8.6668599,1.90625 -1.0625,11.440885 -1.0625,23.28125 L -1.0625,266.625 C -1.0625,278.46537 8.6668592,287.99999 20.75,288 L 169.125,288 C 181.20814,288 190.96876,278.46535 190.96875,266.625 L 190.96875,23.28125 C 190.96875,11.440885 181.20814,1.90625 169.125,1.90625 L 20.75,1.90625 z M 20.75,2.90625 L 169.125,2.90625 C 180.68299,2.90625 189.96875,11.989395 189.96875,23.28125 L 189.96875,266.625 C 189.96876,277.91684 180.683,287 169.125,287 L 20.75,287 C 9.1920081,286.99999 -0.0625,277.91685 -0.0625,266.625 L -0.0625,23.28125 C -0.062499997,11.989395 9.1920093,2.90625 20.75,2.90625 z" id="rect3298" style="fill:#000000;fill-opacity:1;fill-rule:nonzero;stroke:none;stroke-width:1;stroke-linecap:round;stroke-linejoin:miter;stroke-miterlimit:4;stroke-opacity:1"/>
				
				
				
				
      
			
			
			
			</g>
			
			
			
			
      
			
			
			
			<g id="g3361">
				
				
				
				
        
				
				
				
				<path d="M 25.409315,8.3852024 L 164.49215,8.3852024 C 175.57215,8.3852024 184.49215,17.305202 184.49215,28.385202 L 184.49215,261.49806 C 184.49215,272.57806 175.57215,281.49806 164.49215,281.49806 L 25.409315,281.49806 C 14.329315,281.49806 5.4093146,272.57806 5.4093146,261.49806 L 5.4093146,28.385202 C 5.4093146,17.305202 14.329315,8.3852024 25.409315,8.3852024 z" id="rect3280" style="fill:#0000ff;fill-opacity:1;fill-rule:nonzero;stroke:none;stroke-width:2;stroke-linecap:round;stroke-linejoin:miter;stroke-miterlimit:4;stroke-opacity:1"/>
				
				
				
				
        
				
				
				
				<path d="M 37.323893,45.67495 L 152.57757,45.67495 C 161.44157,45.67495 168.57757,52.81095 168.57757,61.67495 L 168.57757,191.37894 C 168.57757,200.24294 161.44157,207.37894 152.57757,207.37894 L 37.323893,207.37894 C 28.459893,207.37894 21.323893,200.24294 21.323893,191.37894 L 21.323893,61.67495 C 21.323893,52.81095 28.459893,45.67495 37.323893,45.67495 z" id="rect3286" style="fill:#ffffff;fill-opacity:1;fill-rule:nonzero;stroke:none;stroke-width:2;stroke-linecap:round;stroke-linejoin:miter;stroke-miterlimit:4;stroke-opacity:1"/>
				
				
				
				
      
			
			
			
			</g>
			
			
			
			
    
		
		
		
		</g>
		
		
		
		
    
		
		
		
		<path d="M 43.905683,83.01085 L 80.938555,83.01085 L 80.938555,127.61115 L 85.654488,127.61115 L 85.654488,148.30276 L 76.661313,148.30276 L 76.661313,136.60432 L 42.918628,136.60432 L 42.918628,148.30276 L 33.925453,148.30276 L 33.925453,127.61115 L 38.458598,127.61115 C 40.67642,123.02927 42.138724,117.71624 42.845512,111.67203 C 43.552284,105.60349 43.905674,97.938585 43.905683,88.677282 L 43.905683,83.01085 M 54.214933,92.004025 C 54.214913,108.28438 52.740424,120.15341 49.791461,127.61115 L 70.154056,127.61115 L 70.154056,92.004025 L 54.214933,92.004025 M 141.29519,136.60432 L 129.52364,136.60432 L 124.84426,124.43064 L 103.42149,124.43064 L 98.998022,136.60432 L 87.518929,136.60432 L 108.39333,83.01085 L 119.83587,83.01085 L 141.29519,136.60432 M 121.37129,115.4009 L 113.98665,95.513557 L 106.74824,115.4009 L 121.37129,115.4009 M 146.88851,136.60432 L 146.88851,83.01085 L 157.70956,83.01085 L 157.70956,136.60432 L 146.88851,136.60432" id="text2448" style="font-size:74.87001038px;font-style:normal;font-variant:normal;font-weight:normal;font-stretch:normal;text-align:start;line-height:125%;writing-mode:lr-tb;text-anchor:start;fill:#000000;fill-opacity:1;stroke:none;stroke-width:1px;stroke-linecap:butt;stroke-linejoin:miter;stroke-opacity:1;font-family:Arial;-inkscape-font-specification:Arial" transform="scale(0.983827,1.0164389)"/>
		
		
		
		
  
	
	
	
	</g>
	
	
	
	




</svg>
