<?xml version="1.0" ?>
<!-- Created with Inkscape (http://www.inkscape.org/) -->
<svg height="269.63297" id="svg2" inkscape:output_extension="org.inkscape.output.svg.inkscape" inkscape:version="0.46" sodipodi:docname="ua_6.3_service-sos_call.svg" sodipodi:version="0.32" version="1.0" width="190.00031" xmlns="http://www.w3.org/2000/svg" xmlns:cc="http://creativecommons.org/ns#" xmlns:dc="http://purl.org/dc/elements/1.1/" xmlns:inkscape="http://www.inkscape.org/namespaces/inkscape" xmlns:rdf="http://www.w3.org/1999/02/22-rdf-syntax-ns#" xmlns:sodipodi="http://sodipodi.sourceforge.net/DTD/sodipodi-0.dtd" xmlns:svg="http://www.w3.org/2000/svg">
	
	
	
	
  
	
	
	
	<metadata id="metadata7">
		
		
		
		
    
  
		
		
	
		
		
	
		
		
	
		<rdf:RDF>
			<cc:Work rdf:about="">
				
        
				<dc:format>
					image/svg+xml
				</dc:format>
				
        
				<dc:type rdf:resource="http://purl.org/dc/dcmitype/StillImage"/>
				
        
				<dc:title>
					 sign
				</dc:title>
				
        
				<cc:license rdf:resource="http://creativecommons.org/licenses/by-nc-sa/3.0/"/>
				
        
				<dc:creator>
					
            
					<cc:Agent>
						
                
						<dc:title>
							Artem Oliynyk
						</dc:title>
						
            
					</cc:Agent>
					
        
				</dc:creator>
				
        
				<dc:rights>
					
            
					<cc:Agent>
						
                
						<dc:title>
							Artem Oliynyk
						</dc:title>
						
            
					</cc:Agent>
					
        
				</dc:rights>
				
        
				<dc:identifier>
					http://azure.km.ua/ua-vector-signs/6_Service/ua_6.3_service-sos_call.svg
				</dc:identifier>
				
        
				<dc:language>
					uk-UA
				</dc:language>
				
        
				<dc:date>
					2010-04-24
				</dc:date>
				
    
			</cc:Work>
			<cc:License rdf:about="http://creativecommons.org/licenses/by-nc-sa/3.0/">
				
        
				<cc:permits rdf:resource="http://creativecommons.org/ns#Reproduction"/>
				
        
				<cc:permits rdf:resource="http://creativecommons.org/ns#Distribution"/>
				
        
				<cc:requires rdf:resource="http://creativecommons.org/ns#Notice"/>
				
        
				<cc:requires rdf:resource="http://creativecommons.org/ns#Attribution"/>
				
        
				<cc:prohibits rdf:resource="http://creativecommons.org/ns#CommercialUse"/>
				
        
				<cc:permits rdf:resource="http://creativecommons.org/ns#DerivativeWorks"/>
				
        
				<cc:requires rdf:resource="http://creativecommons.org/ns#ShareAlike"/>
				
    
			</cc:License>
		</rdf:RDF>
	</metadata>
	
	
	
	
  
	
	
	
	<defs id="defs5">
		
		
		
		
    
		
		
		
		<inkscape:perspective id="perspective9" inkscape:persp3d-origin="372.04724 : 350.78739 : 1" inkscape:vp_x="0 : 526.18109 : 1" inkscape:vp_y="0 : 1000 : 0" inkscape:vp_z="744.09448 : 526.18109 : 1" sodipodi:type="inkscape:persp3d"/>
		
		
		
		
    
		
		
		
		<inkscape:perspective id="perspective2411" inkscape:persp3d-origin="372.04724 : 350.78739 : 1" inkscape:vp_x="0 : 526.18109 : 1" inkscape:vp_y="0 : 1000 : 0" inkscape:vp_z="744.09448 : 526.18109 : 1" sodipodi:type="inkscape:persp3d"/>
		
		
		
		
    
		
		
		
		<inkscape:perspective id="perspective109" inkscape:persp3d-origin="372.04724 : 350.78739 : 1" inkscape:vp_x="0 : 526.18109 : 1" inkscape:vp_y="0 : 1000 : 0" inkscape:vp_z="744.09448 : 526.18109 : 1" sodipodi:type="inkscape:persp3d"/>
		
		
		
		
    
		
		
		
		<inkscape:perspective id="perspective118" inkscape:persp3d-origin="372.04724 : 350.78739 : 1" inkscape:vp_x="0 : 526.18109 : 1" inkscape:vp_y="0 : 1000 : 0" inkscape:vp_z="744.09448 : 526.18109 : 1" sodipodi:type="inkscape:persp3d"/>
		
		
		
		
    
		
		
		
		<inkscape:perspective id="perspective107" inkscape:persp3d-origin="372.04724 : 350.78739 : 1" inkscape:vp_x="0 : 526.18109 : 1" inkscape:vp_y="0 : 1000 : 0" inkscape:vp_z="744.09448 : 526.18109 : 1" sodipodi:type="inkscape:persp3d"/>
		
		
		
		
    
		
		
		
		<inkscape:perspective id="perspective100" inkscape:persp3d-origin="372.04724 : 350.78739 : 1" inkscape:vp_x="0 : 526.18109 : 1" inkscape:vp_y="0 : 1000 : 0" inkscape:vp_z="744.09448 : 526.18109 : 1" sodipodi:type="inkscape:persp3d"/>
		
		
		
		
    
		
		
		
		<inkscape:perspective id="perspective3505" inkscape:persp3d-origin="372.04724 : 350.78739 : 1" inkscape:vp_x="0 : 526.18109 : 1" inkscape:vp_y="0 : 1000 : 0" inkscape:vp_z="744.09448 : 526.18109 : 1" sodipodi:type="inkscape:persp3d"/>
		
		
		
		
    
		
		
		
		<inkscape:perspective id="perspective101" inkscape:persp3d-origin="372.04724 : 350.78739 : 1" inkscape:vp_x="0 : 526.18109 : 1" inkscape:vp_y="0 : 1000 : 0" inkscape:vp_z="744.09448 : 526.18109 : 1" sodipodi:type="inkscape:persp3d"/>
		
		
		
		
  
	
	
	
	</defs>
	
	
	
	
  
	
	
	
	<sodipodi:namedview bordercolor="#666666" borderopacity="1.0" gridtolerance="10.0" guidetolerance="10.0" id="base" inkscape:current-layer="svg2" inkscape:cx="101.14473" inkscape:cy="38.727904" inkscape:guide-bbox="true" inkscape:pageopacity="0.0" inkscape:pageshadow="2" inkscape:window-height="480" inkscape:window-width="640" inkscape:zoom="1.4142136" objecttolerance="10.0" pagecolor="#ffffff" showgrid="false" showguides="false">
		
		
		
		
    
  
	
	
	
	</sodipodi:namedview>
	
	
	
	
  
	
	
	
	<g id="g2417">
		
		
		
		
    
		
		
		
		<g id="g3365" transform="matrix(0.9894239,0,0,0.9424637,1.0512629,-1.7965714)">
			
			
			
			
      
			
			
			
			<g id="g3357">
				
				
				
				
        
				
				
				
				<path d="M 20.761302,2.3941002 L 169.14016,2.3941002 C 180.96073,2.3941002 190.47692,11.705445 190.47692,23.271555 L 190.47692,266.61171 C 190.47692,278.17782 180.96073,287.48916 169.14016,287.48916 L 20.761302,287.48916 C 8.9407366,287.48916 -0.57545906,278.17782 -0.57545906,266.61171 L -0.57545906,23.271555 C -0.57545906,11.705445 8.9407366,2.3941002 20.761302,2.3941002 z" id="rect3292" style="fill:#ffffff;fill-opacity:1;fill-rule:nonzero;stroke:none;stroke-width:2;stroke-linecap:round;stroke-linejoin:miter;stroke-miterlimit:4;stroke-opacity:1"/>
				
				
				
				
        
				
				
				
				<path d="M 20.75,1.90625 C 8.6668599,1.90625 -1.0625,11.440885 -1.0625,23.28125 L -1.0625,266.625 C -1.0625,278.46537 8.6668592,287.99999 20.75,288 L 169.125,288 C 181.20814,288 190.96876,278.46535 190.96875,266.625 L 190.96875,23.28125 C 190.96875,11.440885 181.20814,1.90625 169.125,1.90625 L 20.75,1.90625 z M 20.75,2.90625 L 169.125,2.90625 C 180.68299,2.90625 189.96875,11.989395 189.96875,23.28125 L 189.96875,266.625 C 189.96876,277.91684 180.683,287 169.125,287 L 20.75,287 C 9.1920081,286.99999 -0.0625,277.91685 -0.0625,266.625 L -0.0625,23.28125 C -0.062499997,11.989395 9.1920093,2.90625 20.75,2.90625 z" id="rect3298" style="fill:#000000;fill-opacity:1;fill-rule:nonzero;stroke:none;stroke-width:1;stroke-linecap:round;stroke-linejoin:miter;stroke-miterlimit:4;stroke-opacity:1"/>
				
				
				
				
      
			
			
			
			</g>
			
			
			
			
      
			
			
			
			<g id="g3361">
				
				
				
				
        
				
				
				
				<path d="M 25.409315,8.3852024 L 164.49215,8.3852024 C 175.57215,8.3852024 184.49215,17.305202 184.49215,28.385202 L 184.49215,261.49806 C 184.49215,272.57806 175.57215,281.49806 164.49215,281.49806 L 25.409315,281.49806 C 14.329315,281.49806 5.4093146,272.57806 5.4093146,261.49806 L 5.4093146,28.385202 C 5.4093146,17.305202 14.329315,8.3852024 25.409315,8.3852024 z" id="rect3280" style="fill:#0000ff;fill-opacity:1;fill-rule:nonzero;stroke:none;stroke-width:2;stroke-linecap:round;stroke-linejoin:miter;stroke-miterlimit:4;stroke-opacity:1"/>
				
				
				
				
        
				
				
				
				<path d="M 37.323893,45.67495 L 152.57757,45.67495 C 161.44157,45.67495 168.57757,52.81095 168.57757,61.67495 L 168.57757,191.37894 C 168.57757,200.24294 161.44157,207.37894 152.57757,207.37894 L 37.323893,207.37894 C 28.459893,207.37894 21.323893,200.24294 21.323893,191.37894 L 21.323893,61.67495 C 21.323893,52.81095 28.459893,45.67495 37.323893,45.67495 z" id="rect3286" style="fill:#ffffff;fill-opacity:1;fill-rule:nonzero;stroke:none;stroke-width:2;stroke-linecap:round;stroke-linejoin:miter;stroke-miterlimit:4;stroke-opacity:1"/>
				
				
				
				
      
			
			
			
			</g>
			
			
			
			
    
		
		
		
		</g>
		
		
		
		
    
		
		
		
		<g id="g2621" transform="matrix(-2.4333654,-3.5772899,3.5772899,-2.4333654,-38.633349,604.34304)">
			
			
			
			
      
			
			
			
			<path d="M 274.09375,70.875 C 272.50686,70.854375 270.78658,72.159388 270.78125,73.28125 L 270.96875,93.3125 C 272.31329,93.12349 273.01698,95.399152 273.3125,97.78125 C 274.21543,105.05944 264.97213,110.88186 260.78125,117.53125 C 256.63986,124.10212 256.33134,129.41143 243.75,135.40625 C 241.37342,135.74004 241.11492,135.29542 240.625,134.25 L 223.5,144.71875 C 234.54381,159.57922 255.78673,152.49745 275,127 C 294.21327,101.50235 292.35158,76.0796 274.75,70.96875 C 274.53407,70.906067 274.32045,70.877947 274.09375,70.875 z M 265.71875,71.28125 C 262.65368,71.276023 260.19316,73.922856 260.1875,77.21875 L 260.15625,87.34375 C 260.15015,90.639645 262.6222,93.307051 265.6875,93.3125 L 267.4375,93.3125 C 268.45955,93.314025 269.27929,92.442101 269.28125,91.34375 L 269.3125,73.25 C 269.31445,72.151003 268.49059,71.282987 267.46875,71.28125 L 265.71875,71.28125 z M 234.53125,126.5 C 233.40731,126.45602 232.2276,126.72765 231.15625,127.34375 L 222.40625,132.40625 C 219.54934,134.04918 218.47192,137.5301 220,140.1875 L 220.84375,141.6875 C 221.35304,142.57355 222.54784,142.82892 223.5,142.28125 L 239.15625,133.28125 C 240.10906,132.73338 240.47803,131.57333 239.96875,130.6875 L 239.09375,129.1875 C 238.1387,127.52685 236.40448,126.57331 234.53125,126.5 z" id="_43514832" sodipodi:nodetypes="cccszcccsscccccccccccccccccccc" style="fill:#000000" transform="matrix(0.2839354,0,0,0.2839354,9.4311602,61.120629)"/>
			
			
			
			
    
		
		
		
		</g>
		
		
		
		
    
		
		
		
		<text id="text4028" sodipodi:linespacing="125%" style="font-size:50.26429367px;font-style:normal;font-variant:normal;font-weight:normal;font-stretch:normal;text-align:start;line-height:125%;writing-mode:lr-tb;text-anchor:start;fill:#000000;fill-opacity:1;stroke:none;stroke-width:1px;stroke-linecap:butt;stroke-linejoin:miter;stroke-opacity:1;font-family:Arial;-inkscape-font-specification:Arial" transform="scale(0.8608026,1.1617065)" x="57.742363" xml:space="preserve" y="151.05574">
			
			
			
			
			
			
			<tspan id="tspan4030" sodipodi:role="line" x="57.742363" y="151.05574">
				
				
				
				SOS
			
			
			
			</tspan>
			
			
			
		
		
		
		</text>
		
		
		
		
  
	
	
	
	</g>
	
	
	
	




</svg>
