<?xml version="1.0" ?>
<!-- Created with Inkscape (http://www.inkscape.org/) -->
<svg height="269.63297" id="svg2" inkscape:output_extension="org.inkscape.output.svg.inkscape" inkscape:version="0.46" sodipodi:docname="ua_5.2_informational_indicatory-highway_end.svg" sodipodi:version="0.32" version="1.0" width="190.00031" xmlns="http://www.w3.org/2000/svg" xmlns:cc="http://creativecommons.org/ns#" xmlns:dc="http://purl.org/dc/elements/1.1/" xmlns:inkscape="http://www.inkscape.org/namespaces/inkscape" xmlns:rdf="http://www.w3.org/1999/02/22-rdf-syntax-ns#" xmlns:sodipodi="http://sodipodi.sourceforge.net/DTD/sodipodi-0.dtd" xmlns:svg="http://www.w3.org/2000/svg">
	
	
	
	
  
	
	
	
	<metadata id="metadata7">
		
		
		
		
    
  
		
		
	
		
		
	
		
		
	
		<rdf:RDF>
			<cc:Work rdf:about="">
				
        
				<dc:format>
					image/svg+xml
				</dc:format>
				
        
				<dc:type rdf:resource="http://purl.org/dc/dcmitype/StillImage"/>
				
        
				<dc:title>
					 sign
				</dc:title>
				
        
				<cc:license rdf:resource="http://creativecommons.org/licenses/by-nc-sa/3.0/"/>
				
        
				<dc:creator>
					
            
					<cc:Agent>
						
                
						<dc:title>
							Artem Oliynyk
						</dc:title>
						
            
					</cc:Agent>
					
        
				</dc:creator>
				
        
				<dc:rights>
					
            
					<cc:Agent>
						
                
						<dc:title>
							Artem Oliynyk
						</dc:title>
						
            
					</cc:Agent>
					
        
				</dc:rights>
				
        
				<dc:identifier>
					http://azure.km.ua/ua-vector-signs/5_Informational-indicatory/ua_5.2_informational_indicatory-highway_end.svg
				</dc:identifier>
				
        
				<dc:language>
					uk-UA
				</dc:language>
				
        
				<dc:date>
					2010-04-24
				</dc:date>
				
    
			</cc:Work>
			<cc:License rdf:about="http://creativecommons.org/licenses/by-nc-sa/3.0/">
				
        
				<cc:permits rdf:resource="http://creativecommons.org/ns#Reproduction"/>
				
        
				<cc:permits rdf:resource="http://creativecommons.org/ns#Distribution"/>
				
        
				<cc:requires rdf:resource="http://creativecommons.org/ns#Notice"/>
				
        
				<cc:requires rdf:resource="http://creativecommons.org/ns#Attribution"/>
				
        
				<cc:prohibits rdf:resource="http://creativecommons.org/ns#CommercialUse"/>
				
        
				<cc:permits rdf:resource="http://creativecommons.org/ns#DerivativeWorks"/>
				
        
				<cc:requires rdf:resource="http://creativecommons.org/ns#ShareAlike"/>
				
    
			</cc:License>
		</rdf:RDF>
	</metadata>
	
	
	
	
  
	
	
	
	<defs id="defs5">
		
		
		
		
    
		
		
		
		<inkscape:perspective id="perspective9" inkscape:persp3d-origin="372.04724 : 350.78739 : 1" inkscape:vp_x="0 : 526.18109 : 1" inkscape:vp_y="0 : 1000 : 0" inkscape:vp_z="744.09448 : 526.18109 : 1" sodipodi:type="inkscape:persp3d"/>
		
		
		
		
    
		
		
		
		<inkscape:perspective id="perspective2411" inkscape:persp3d-origin="372.04724 : 350.78739 : 1" inkscape:vp_x="0 : 526.18109 : 1" inkscape:vp_y="0 : 1000 : 0" inkscape:vp_z="744.09448 : 526.18109 : 1" sodipodi:type="inkscape:persp3d"/>
		
		
		
		
    
		
		
		
		<inkscape:perspective id="perspective109" inkscape:persp3d-origin="372.04724 : 350.78739 : 1" inkscape:vp_x="0 : 526.18109 : 1" inkscape:vp_y="0 : 1000 : 0" inkscape:vp_z="744.09448 : 526.18109 : 1" sodipodi:type="inkscape:persp3d"/>
		
		
		
		
    
		
		
		
		<inkscape:perspective id="perspective118" inkscape:persp3d-origin="372.04724 : 350.78739 : 1" inkscape:vp_x="0 : 526.18109 : 1" inkscape:vp_y="0 : 1000 : 0" inkscape:vp_z="744.09448 : 526.18109 : 1" sodipodi:type="inkscape:persp3d"/>
		
		
		
		
    
		
		
		
		<inkscape:perspective id="perspective2415" inkscape:persp3d-origin="372.04724 : 350.78739 : 1" inkscape:vp_x="0 : 526.18109 : 1" inkscape:vp_y="0 : 1000 : 0" inkscape:vp_z="744.09448 : 526.18109 : 1" sodipodi:type="inkscape:persp3d"/>
		
		
		
		
    
		
		
		
		<inkscape:perspective id="perspective151" inkscape:persp3d-origin="372.04724 : 350.78739 : 1" inkscape:vp_x="0 : 526.18109 : 1" inkscape:vp_y="0 : 1000 : 0" inkscape:vp_z="744.09448 : 526.18109 : 1" sodipodi:type="inkscape:persp3d"/>
		
		
		
		
  
	
	
	
	</defs>
	
	
	
	
  
	
	
	
	<sodipodi:namedview bordercolor="#666666" borderopacity="1.0" gridtolerance="10.0" guidetolerance="10.0" id="base" inkscape:current-layer="svg2" inkscape:cx="-48.199203" inkscape:cy="113.44598" inkscape:pageopacity="0.0" inkscape:pageshadow="2" inkscape:window-height="480" inkscape:window-width="640" inkscape:zoom="1.4142136" objecttolerance="10.0" pagecolor="#ffffff" showgrid="false"/>
	
	
	
	
  
	
	
	
	<g id="g2405">
		
		
		
		
    
		
		
		
		<path d="M 21.592991,0.45978113 L 168.40258,0.45978113 C 180.09813,0.45978113 189.51368,9.2353856 189.51368,20.136024 L 189.51368,249.47529 C 189.51368,260.37593 180.09813,269.15153 168.40258,269.15153 L 21.592991,269.15153 C 9.8974414,269.15153 0.48188995,260.37593 0.48188995,249.47529 L 0.48188995,20.136024 C 0.48188995,9.2353856 9.8974414,0.45978113 21.592991,0.45978113 z" id="rect3292" style="fill:#ffffff;fill-opacity:1;fill-rule:nonzero;stroke:none;stroke-width:2;stroke-linecap:round;stroke-linejoin:miter;stroke-miterlimit:4;stroke-opacity:1"/>
		
		
		
		
    
		
		
		
		<g id="g3361" style="fill:#008000;fill-opacity:1" transform="matrix(0.9894239,0,0,0.9424637,1.0512629,-1.7965714)">
			
			
			
			
      
			
			
			
			<path d="M 26.1875,6.09375 C 15.224683,6.09375 6.4062501,14.526251 6.40625,24.96875 L 6.40625,72.71875 L 183.59375,72.71875 L 183.59375,24.96875 C 183.59375,14.526252 174.77532,6.0937501 163.8125,6.09375 L 108.4375,6.09375 L 124.75,65.5 L 102.96875,65.5 L 99.96875,6.09375 L 92.03125,6.09375 L 89.09375,65.5 L 67.21875,65.5 L 83.53125,6.09375 L 26.1875,6.09375 z M 6.40625,84.625 L 6.40625,244.65625 C 6.40625,250.67896 9.3491458,256.02266 13.9375,259.46875 L 59.875,92.3125 L 87.71875,92.3125 L 79.25,263.5 L 112.84375,263.5 L 104.25,92.3125 L 132.1875,92.3125 L 177.75,258.03125 C 181.35554,254.62069 183.59375,249.90124 183.59375,244.65625 L 183.59375,84.625 L 159.75,84.625 L 160.3125,101.875 L 152.5,101.875 L 143.40625,84.625 L 48.5625,84.625 L 39.46875,101.875 L 31.65625,101.875 L 32.21875,84.625 L 6.40625,84.625 z" id="rect3280" sodipodi:nodetypes="cccccccccccccccccccccccccccccccccccc" style="fill:#008000;fill-opacity:1;fill-rule:nonzero;stroke:none;stroke-width:2;stroke-linecap:round;stroke-linejoin:miter;stroke-miterlimit:4;stroke-opacity:1" transform="matrix(1.0106891,0,0,1.0610488,-1.0625,1.90625)"/>
			
			
			
			
    
		
		
		
		</g>
		
		
		
		
    
		
		
		
		<path d="M 176.09375,1.34375 L 0.25,252.625 C 1.5842743,260.64418 7.9654297,267.0858 16.28125,269.03125 L 190,20.71875 L 190,20.15625 C 190,11.535955 184.23046,4.232934 176.09375,1.34375 z" id="rect2389" style="fill:#ff0000;fill-opacity:1;fill-rule:nonzero;stroke:none;stroke-width:3.4000001;stroke-linecap:round;stroke-linejoin:miter;stroke-miterlimit:4;stroke-dasharray:none;stroke-opacity:1"/>
		
		
		
		
    
		
		
		
		<path d="M 21.581809,2.8125e-08 C 9.6264612,2.8125e-08 6.2500001e-09,8.9860474 6.2500001e-09,20.145162 L 6.2500001e-09,249.48781 C 6.2500001e-09,260.64693 9.6264605,269.63296 21.581809,269.63297 L 168.38758,269.63297 C 180.34293,269.63297 190.00032,260.64691 190.00031,249.48781 L 190.00031,20.145162 C 190.00031,8.9860474 180.34293,2.8125e-08 168.38758,2.8125e-08 L 21.581809,2.8125e-08 z M 21.581809,0.94246373 L 168.38758,0.94246373 C 179.82333,0.94246373 189.01088,9.5029982 189.01088,20.145162 L 189.01088,249.48781 C 189.01089,260.12996 179.82334,268.69051 168.38758,268.69051 L 21.581809,268.69051 C 10.146055,268.6905 0.98942391,260.12997 0.98942391,249.48781 L 0.98942391,20.145162 C 0.98942391,9.5029982 10.146057,0.94246373 21.581809,0.94246373 z" id="rect3298" style="fill:#000000;fill-opacity:1;fill-rule:nonzero;stroke:none;stroke-width:1;stroke-linecap:round;stroke-linejoin:miter;stroke-miterlimit:4;stroke-opacity:1"/>
		
		
		
		
  
	
	
	
	</g>
	
	
	
	




</svg>
