<?xml version="1.0" ?>
<!-- Created with Inkscape (http://www.inkscape.org/) -->
<svg height="269.63297" id="svg2" inkscape:output_extension="org.inkscape.output.svg.inkscape" inkscape:version="0.46" sodipodi:docname="ua_5.1_informational_indicatory-highway.svg" sodipodi:version="0.32" version="1.0" width="190.00031" xmlns="http://www.w3.org/2000/svg" xmlns:cc="http://creativecommons.org/ns#" xmlns:dc="http://purl.org/dc/elements/1.1/" xmlns:inkscape="http://www.inkscape.org/namespaces/inkscape" xmlns:rdf="http://www.w3.org/1999/02/22-rdf-syntax-ns#" xmlns:sodipodi="http://sodipodi.sourceforge.net/DTD/sodipodi-0.dtd" xmlns:svg="http://www.w3.org/2000/svg">
	
	
	
	
  
	
	
	
	<metadata id="metadata7">
		
		
		
		
    
  
		
		
	
		
		
	
		
		
	
		<rdf:RDF>
			<cc:Work rdf:about="">
				
        
				<dc:format>
					image/svg+xml
				</dc:format>
				
        
				<dc:type rdf:resource="http://purl.org/dc/dcmitype/StillImage"/>
				
        
				<dc:title>
					 sign
				</dc:title>
				
        
				<cc:license rdf:resource="http://creativecommons.org/licenses/by-nc-sa/3.0/"/>
				
        
				<dc:creator>
					
            
					<cc:Agent>
						
                
						<dc:title>
							Artem Oliynyk
						</dc:title>
						
            
					</cc:Agent>
					
        
				</dc:creator>
				
        
				<dc:rights>
					
            
					<cc:Agent>
						
                
						<dc:title>
							Artem Oliynyk
						</dc:title>
						
            
					</cc:Agent>
					
        
				</dc:rights>
				
        
				<dc:identifier>
					http://azure.km.ua/ua-vector-signs/5_Informational-indicatory/ua_5.1_informational_indicatory-highway.svg
				</dc:identifier>
				
        
				<dc:language>
					uk-UA
				</dc:language>
				
        
				<dc:date>
					2010-04-24
				</dc:date>
				
    
			</cc:Work>
			<cc:License rdf:about="http://creativecommons.org/licenses/by-nc-sa/3.0/">
				
        
				<cc:permits rdf:resource="http://creativecommons.org/ns#Reproduction"/>
				
        
				<cc:permits rdf:resource="http://creativecommons.org/ns#Distribution"/>
				
        
				<cc:requires rdf:resource="http://creativecommons.org/ns#Notice"/>
				
        
				<cc:requires rdf:resource="http://creativecommons.org/ns#Attribution"/>
				
        
				<cc:prohibits rdf:resource="http://creativecommons.org/ns#CommercialUse"/>
				
        
				<cc:permits rdf:resource="http://creativecommons.org/ns#DerivativeWorks"/>
				
        
				<cc:requires rdf:resource="http://creativecommons.org/ns#ShareAlike"/>
				
    
			</cc:License>
		</rdf:RDF>
	</metadata>
	
	
	
	
  
	
	
	
	<defs id="defs5">
		
		
		
		
    
		
		
		
		<inkscape:perspective id="perspective9" inkscape:persp3d-origin="372.04724 : 350.78739 : 1" inkscape:vp_x="0 : 526.18109 : 1" inkscape:vp_y="0 : 1000 : 0" inkscape:vp_z="744.09448 : 526.18109 : 1" sodipodi:type="inkscape:persp3d"/>
		
		
		
		
    
		
		
		
		<inkscape:perspective id="perspective2411" inkscape:persp3d-origin="372.04724 : 350.78739 : 1" inkscape:vp_x="0 : 526.18109 : 1" inkscape:vp_y="0 : 1000 : 0" inkscape:vp_z="744.09448 : 526.18109 : 1" sodipodi:type="inkscape:persp3d"/>
		
		
		
		
    
		
		
		
		<inkscape:perspective id="perspective109" inkscape:persp3d-origin="372.04724 : 350.78739 : 1" inkscape:vp_x="0 : 526.18109 : 1" inkscape:vp_y="0 : 1000 : 0" inkscape:vp_z="744.09448 : 526.18109 : 1" sodipodi:type="inkscape:persp3d"/>
		
		
		
		
    
		
		
		
		<inkscape:perspective id="perspective118" inkscape:persp3d-origin="372.04724 : 350.78739 : 1" inkscape:vp_x="0 : 526.18109 : 1" inkscape:vp_y="0 : 1000 : 0" inkscape:vp_z="744.09448 : 526.18109 : 1" sodipodi:type="inkscape:persp3d"/>
		
		
		
		
    
		
		
		
		<inkscape:perspective id="perspective2415" inkscape:persp3d-origin="372.04724 : 350.78739 : 1" inkscape:vp_x="0 : 526.18109 : 1" inkscape:vp_y="0 : 1000 : 0" inkscape:vp_z="744.09448 : 526.18109 : 1" sodipodi:type="inkscape:persp3d"/>
		
		
		
		
    
		
		
		
		<inkscape:perspective id="perspective151" inkscape:persp3d-origin="372.04724 : 350.78739 : 1" inkscape:vp_x="0 : 526.18109 : 1" inkscape:vp_y="0 : 1000 : 0" inkscape:vp_z="744.09448 : 526.18109 : 1" sodipodi:type="inkscape:persp3d"/>
		
		
		
		
  
	
	
	
	</defs>
	
	
	
	
  
	
	
	
	<sodipodi:namedview bordercolor="#666666" borderopacity="1.0" gridtolerance="10.0" guidetolerance="10.0" id="base" inkscape:current-layer="svg2" inkscape:cx="483.51705" inkscape:cy="15.873736" inkscape:pageopacity="0.0" inkscape:pageshadow="2" inkscape:window-height="480" inkscape:window-width="640" inkscape:zoom="0.7071068" objecttolerance="10.0" pagecolor="#ffffff" showgrid="false"/>
	
	
	
	
  
	
	
	
	<g id="g2527">
		
		
		
		
    
		
		
		
		<g id="g3357" transform="matrix(0.9894239,0,0,0.9424637,1.0512629,-1.7965714)">
			
			
			
			
      
			
			
			
			<path d="M 20.761302,2.3941002 L 169.14016,2.3941002 C 180.96073,2.3941002 190.47692,11.705445 190.47692,23.271555 L 190.47692,266.61171 C 190.47692,278.17782 180.96073,287.48916 169.14016,287.48916 L 20.761302,287.48916 C 8.9407366,287.48916 -0.57545906,278.17782 -0.57545906,266.61171 L -0.57545906,23.271555 C -0.57545906,11.705445 8.9407366,2.3941002 20.761302,2.3941002 z" id="rect3292" style="fill:#ffffff;fill-opacity:1;fill-rule:nonzero;stroke:none;stroke-width:2;stroke-linecap:round;stroke-linejoin:miter;stroke-miterlimit:4;stroke-opacity:1"/>
			
			
			
			
      
			
			
			
			<path d="M 20.75,1.90625 C 8.6668599,1.90625 -1.0625,11.440885 -1.0625,23.28125 L -1.0625,266.625 C -1.0625,278.46537 8.6668592,287.99999 20.75,288 L 169.125,288 C 181.20814,288 190.96876,278.46535 190.96875,266.625 L 190.96875,23.28125 C 190.96875,11.440885 181.20814,1.90625 169.125,1.90625 L 20.75,1.90625 z M 20.75,2.90625 L 169.125,2.90625 C 180.68299,2.90625 189.96875,11.989395 189.96875,23.28125 L 189.96875,266.625 C 189.96876,277.91684 180.683,287 169.125,287 L 20.75,287 C 9.1920081,286.99999 -0.0625,277.91685 -0.0625,266.625 L -0.0625,23.28125 C -0.062499997,11.989395 9.1920093,2.90625 20.75,2.90625 z" id="rect3298" style="fill:#000000;fill-opacity:1;fill-rule:nonzero;stroke:none;stroke-width:1;stroke-linecap:round;stroke-linejoin:miter;stroke-miterlimit:4;stroke-opacity:1"/>
			
			
			
			
    
		
		
		
		</g>
		
		
		
		
    
		
		
		
		<g id="g3361" style="fill:#008000;fill-opacity:1" transform="matrix(0.9894239,0,0,0.9424637,1.0512629,-1.7965714)">
			
			
			
			
      
			
			
			
			<path d="M 26.1875,6.09375 C 15.224683,6.09375 6.4062501,14.526251 6.40625,24.96875 L 6.40625,72.71875 L 183.59375,72.71875 L 183.59375,24.96875 C 183.59375,14.526252 174.77532,6.0937501 163.8125,6.09375 L 108.4375,6.09375 L 124.75,65.5 L 102.96875,65.5 L 99.96875,6.09375 L 92.03125,6.09375 L 89.09375,65.5 L 67.21875,65.5 L 83.53125,6.09375 L 26.1875,6.09375 z M 6.40625,84.625 L 6.40625,244.65625 C 6.40625,250.67896 9.3491458,256.02266 13.9375,259.46875 L 59.875,92.3125 L 87.71875,92.3125 L 79.25,263.5 L 112.84375,263.5 L 104.25,92.3125 L 132.1875,92.3125 L 177.75,258.03125 C 181.35554,254.62069 183.59375,249.90124 183.59375,244.65625 L 183.59375,84.625 L 159.75,84.625 L 160.3125,101.875 L 152.5,101.875 L 143.40625,84.625 L 48.5625,84.625 L 39.46875,101.875 L 31.65625,101.875 L 32.21875,84.625 L 6.40625,84.625 z" id="rect3280" sodipodi:nodetypes="cccccccccccccccccccccccccccccccccccc" style="fill:#008000;fill-opacity:1;fill-rule:nonzero;stroke:none;stroke-width:2;stroke-linecap:round;stroke-linejoin:miter;stroke-miterlimit:4;stroke-opacity:1" transform="matrix(1.0106891,0,0,1.0610488,-1.0625,1.90625)"/>
			
			
			
			
    
		
		
		
		</g>
		
		
		
		
  
	
	
	
	</g>
	
	
	
	




</svg>
