<?xml version="1.0" ?>
<!-- Created with Inkscape (http://www.inkscape.org/) -->
<svg height="190" id="svg118" inkscape:output_extension="org.inkscape.output.svg.inkscape" inkscape:version="0.46" sodipodi:docname="ua_3.3_prohibitory-no_goods_vehicles_over_max_weight.svg" sodipodi:version="0.32" version="1.0" width="190.00002" xmlns="http://www.w3.org/2000/svg" xmlns:cc="http://creativecommons.org/ns#" xmlns:dc="http://purl.org/dc/elements/1.1/" xmlns:inkscape="http://www.inkscape.org/namespaces/inkscape" xmlns:rdf="http://www.w3.org/1999/02/22-rdf-syntax-ns#" xmlns:sodipodi="http://sodipodi.sourceforge.net/DTD/sodipodi-0.dtd" xmlns:svg="http://www.w3.org/2000/svg">
	
	
	
	
  
	
	
	
	<metadata id="metadata118">
		
		
		
		
    
  
		
		
	
		
		
	
		
		
	
		<rdf:RDF>
			<cc:Work rdf:about="">
				
        
				<dc:format>
					image/svg+xml
				</dc:format>
				
        
				<dc:type rdf:resource="http://purl.org/dc/dcmitype/StillImage"/>
				
        
				<dc:title>
					 sign
				</dc:title>
				
        
				<cc:license rdf:resource="http://creativecommons.org/licenses/by-nc-sa/3.0/"/>
				
        
				<dc:creator>
					
            
					<cc:Agent>
						
                
						<dc:title>
							Artem Oliynyk
						</dc:title>
						
            
					</cc:Agent>
					
        
				</dc:creator>
				
        
				<dc:rights>
					
            
					<cc:Agent>
						
                
						<dc:title>
							Artem Oliynyk
						</dc:title>
						
            
					</cc:Agent>
					
        
				</dc:rights>
				
        
				<dc:identifier>
					http://azure.km.ua/ua-vector-signs/3_Prohibitory/ua_3.3_prohibitory-no_goods_vehicles_over_max_weight.svg
				</dc:identifier>
				
        
				<dc:language>
					uk-UA
				</dc:language>
				
        
				<dc:date>
					2010-04-24
				</dc:date>
				
    
			</cc:Work>
			<cc:License rdf:about="http://creativecommons.org/licenses/by-nc-sa/3.0/">
				
        
				<cc:permits rdf:resource="http://creativecommons.org/ns#Reproduction"/>
				
        
				<cc:permits rdf:resource="http://creativecommons.org/ns#Distribution"/>
				
        
				<cc:requires rdf:resource="http://creativecommons.org/ns#Notice"/>
				
        
				<cc:requires rdf:resource="http://creativecommons.org/ns#Attribution"/>
				
        
				<cc:prohibits rdf:resource="http://creativecommons.org/ns#CommercialUse"/>
				
        
				<cc:permits rdf:resource="http://creativecommons.org/ns#DerivativeWorks"/>
				
        
				<cc:requires rdf:resource="http://creativecommons.org/ns#ShareAlike"/>
				
    
			</cc:License>
		</rdf:RDF>
	</metadata>
	
	
	
	
  
	
	
	
	<defs id="defs118">
		
		
		
		
    
		
		
		
		<inkscape:perspective id="perspective118" inkscape:persp3d-origin="372.04724 : 350.78739 : 1" inkscape:vp_x="0 : 526.18109 : 1" inkscape:vp_y="0 : 1000 : 0" inkscape:vp_z="744.09448 : 526.18109 : 1" sodipodi:type="inkscape:persp3d"/>
		
		
		
		
    
		
		
		
		<inkscape:perspective id="perspective102" inkscape:persp3d-origin="372.04724 : 350.78739 : 1" inkscape:vp_x="0 : 526.18109 : 1" inkscape:vp_y="0 : 1000 : 0" inkscape:vp_z="744.09448 : 526.18109 : 1" sodipodi:type="inkscape:persp3d"/>
		
		
		
		
    
		
		
		
		<inkscape:perspective id="perspective3360" inkscape:persp3d-origin="372.04724 : 350.78739 : 1" inkscape:vp_x="0 : 526.18109 : 1" inkscape:vp_y="0 : 1000 : 0" inkscape:vp_z="744.09448 : 526.18109 : 1" sodipodi:type="inkscape:persp3d"/>
		
		
		
		
    
		
		
		
		<inkscape:perspective id="perspective103" inkscape:persp3d-origin="372.04724 : 350.78739 : 1" inkscape:vp_x="0 : 526.18109 : 1" inkscape:vp_y="0 : 1000 : 0" inkscape:vp_z="744.09448 : 526.18109 : 1" sodipodi:type="inkscape:persp3d"/>
		
		
		
		
  
	
	
	
	</defs>
	
	
	
	
  
	
	
	
	<sodipodi:namedview bordercolor="#666666" borderopacity="1.0" gridtolerance="10.0" guidetolerance="10.0" id="base" inkscape:current-layer="svg118" inkscape:cx="95.000006" inkscape:cy="95" inkscape:guide-bbox="true" inkscape:pageopacity="0.0" inkscape:pageshadow="2" inkscape:window-height="480" inkscape:window-width="640" inkscape:zoom="4.0105263" objecttolerance="10.0" pagecolor="#ffffff" showgrid="false" showguides="false">
		
		
		
		
    
  
	
	
	
	</sodipodi:namedview>
	
	
	
	
  
	
	
	
	<g id="g3447">
		
		
		
		
    
		
		
		
		<g id="g3364">
			
			
			
			
      
			
			
			
			<g id="g3295" transform="translate(1.649824e-6,-3.6674862e-8)">
				
				
				
				
        
				
				
				
				<path d="M 94.999997,3.6674864e-08 C 42.56437,3.6674864e-08 -1.649824e-06,42.564369 -1.649824e-06,95.000001 C -1.649824e-06,147.43563 42.56437,190.00001 94.999997,190 C 147.43564,190 189.99999,147.43563 190.00001,95.000001 C 190.00001,42.564369 147.43564,3.6674864e-08 94.999997,3.6674864e-08 z M 94.999997,0.61688316 C 147.09656,0.61688316 189.38312,42.903442 189.38312,95.000001 C 189.38311,147.09656 147.09656,189.38312 94.999997,189.38312 C 42.903447,189.38313 0.61688928,147.09656 0.61688928,95.000001 C 0.61688928,42.903442 42.903447,0.61688316 94.999997,0.61688316 z" id="path3174" style="fill:#000000;fill-opacity:1;fill-rule:evenodd;stroke:none;stroke-width:0.47619048;stroke-miterlimit:4;stroke-dasharray:none;stroke-opacity:1"/>
				
				
				
				
        
				
				
				
				<g id="g2514">
					
					
					
					
          
					
					
					
					<g id="g2518">
						
						
						
						
            
						
						
						
						<path d="M 94.999536,0.52549349 C 42.946377,0.52549349 0.52554931,42.946321 0.52554931,94.999474 C 0.52554931,147.05263 42.946377,189.47347 94.999536,189.47346 C 147.05268,189.47346 189.4735,147.05263 189.47351,94.999474 C 189.47351,42.946321 147.05268,0.52549349 94.999536,0.52549349 z" id="path3157" sodipodi:nodetypes="csssc" style="fill:#ffffff;fill-opacity:1;fill-rule:evenodd;stroke:none;stroke-width:16;stroke-miterlimit:4;stroke-dasharray:none;stroke-opacity:1"/>
						
						
						
						
            
						
						
						
						<g id="g3292">
							
							
							
							
              
							
							
							
							<path d="M 94.999333,5.0240299 C 45.424903,5.0240299 5.0241133,45.424819 5.0241133,94.99925 C 5.0241133,144.57368 45.424903,184.97448 94.999333,184.97447 C 144.57376,184.97447 184.97454,144.57368 184.97455,94.99925 C 184.97455,45.424819 144.57376,5.0240299 94.999333,5.0240299 z M 94.999333,23.033144 C 134.82971,23.033144 166.96544,55.168876 166.96544,94.99925 C 166.96543,134.82962 134.82971,166.96535 94.999333,166.96535 C 55.168971,166.96536 23.033227,134.82962 23.033227,94.99925 C 23.033227,55.168876 55.168959,23.033144 94.999333,23.033144 z" id="path2385" style="fill:#ff0000;fill-opacity:1;fill-rule:evenodd;stroke:none;stroke-width:16;stroke-miterlimit:4;stroke-dasharray:none;stroke-opacity:1"/>
							
							
							
							
            
						
						
						
						</g>
						
						
						
						
          
					
					
					
					</g>
					
					
					
					
        
				
				
				
				</g>
				
				
				
				
      
			
			
			
			</g>
			
			
			
			
      
			
			
			
			<g id="g3500" transform="translate(-443.93231,-8.7676721)"/>
			
			
			
			
    
		
		
		
		</g>
		
		
		
		
    
		
		
		
		<g id="g3503" transform="translate(-663.22285,-5.7841085)">
			
			
			
			
      
			
			
			
			<path class="fil2 str0" d="M 741.19828,66.1129 L 811.85529,66.1129 C 814.76107,66.1129 816.94042,68.47479 816.94042,71.38052 L 816.94042,105.89204 C 816.94042,108.79778 814.76107,110.97711 811.85529,110.97711 L 741.19828,110.97711 C 738.29248,110.97711 736.11315,108.79778 736.11315,105.89204 L 736.11315,71.38052 C 736.11315,68.47479 738.29248,66.1129 741.19828,66.1129 z M 787.51531,129.86699 C 784.79094,129.86699 782.43017,127.50639 782.43017,124.78196 C 782.43017,121.8749 784.79094,119.69559 787.51531,119.69559 C 790.42218,119.69559 792.78296,121.8749 792.78296,124.78196 C 792.78296,127.50639 790.42218,129.86699 787.51531,129.86699 z M 787.51531,136.95138 C 781.1587,136.95138 775.34567,131.50244 775.34567,124.78196 C 775.34567,118.06145 781.1587,112.79384 787.51531,112.79384 C 794.05442,112.79384 799.68603,118.06145 799.68603,124.78196 C 799.68603,131.50244 794.05442,136.95138 787.51531,136.95138 z M 715.22397,129.86699 C 712.4996,129.86699 710.13883,127.50639 710.13883,124.78196 C 710.13883,121.8749 712.4996,119.69559 715.22397,119.69559 C 718.13084,119.69559 720.31018,121.8749 720.31018,124.78196 C 720.31018,127.50639 718.13084,129.86699 715.22397,129.86699 z M 715.22397,136.95138 C 708.68594,136.95138 703.0547,131.50244 703.0547,124.78196 C 703.0547,118.06145 708.68594,112.79384 715.22397,112.79384 C 721.9456,112.79384 727.21217,118.06145 727.21217,124.78196 C 727.21217,131.50244 721.9456,136.95138 715.22397,136.95138 z M 701.6018,126.41611 C 701.6018,125.87095 701.42038,125.14453 701.42038,124.78196 C 701.42038,117.335 707.77697,110.97711 715.22397,110.97711 C 722.85348,110.97711 729.02864,117.335 729.02864,124.78196 C 729.02864,125.32708 729.02864,125.87095 728.84758,126.41611 L 772.07629,126.41611 C 772.98526,126.41611 773.89313,125.68966 773.89313,124.78196 L 773.89313,114.42798 C 773.89313,113.33897 772.98526,112.79384 772.07629,112.79384 L 732.47981,112.79384 L 732.47981,83.36864 C 732.47981,81.91579 731.02692,80.09904 729.02864,80.09904 L 704.87117,80.09904 C 702.87328,80.09904 701.96539,81.73319 701.23895,83.36864 L 694.5184,100.62442 L 694.5184,122.96522 C 694.5184,124.78196 696.15272,126.41611 698.15064,126.41611 L 701.6018,126.41611 z M 803.13682,112.79384 L 815.3061,112.79384 C 816.21397,112.79384 816.94042,113.33897 816.94042,114.42798 L 816.94042,122.96522 C 816.94042,124.05552 816.21397,124.78196 815.3061,124.78196 L 803.13682,124.78196 C 802.04644,124.78196 801.31999,124.05552 801.31999,122.96522 L 801.31999,114.42798 C 801.31999,113.33897 802.04644,112.79384 803.13682,112.79384 z M 722.12703,85.18538 L 708.32199,85.18538 C 707.59554,85.18538 706.8691,86.09311 706.50549,86.81956 L 703.0547,97.17224 C 702.87328,97.89995 703.96366,98.80768 704.87117,98.80768 L 722.12703,98.80768 C 723.03455,98.80768 723.94243,98.08124 723.94243,97.17224 L 723.94243,86.81956 C 723.94243,85.91182 722.67204,85.18538 722.12703,85.18538 z M 770.2609,90.08915 C 769.1705,89.72528 768.26262,88.99887 767.53618,87.90984 C 766.99115,87.00083 766.62721,85.72924 766.62721,84.64025 C 766.62721,82.64222 767.35367,80.82549 768.62549,79.73517 C 769.89695,78.4649 771.89486,77.91974 774.07421,77.91974 C 776.25499,77.91974 778.07039,78.4649 779.52329,79.73517 C 780.79475,80.82549 781.5212,82.64222 781.5212,84.64025 C 781.5212,85.72924 781.1587,87.00083 780.61332,87.90984 C 779.88688,88.99887 778.97936,89.72528 777.88896,90.08915 C 779.16043,90.45173 780.43225,91.36073 781.1587,92.44975 C 782.06621,93.72131 782.43017,95.17548 782.43017,96.62838 C 782.43017,98.80768 781.70372,100.8057 780.25082,102.25857 C 778.97936,103.71142 776.79857,104.43787 774.07421,104.43787 C 771.34985,104.43787 769.1705,103.71142 767.89904,102.25857 C 766.44615,100.8057 765.7197,98.80768 765.7197,96.62838 C 765.7197,95.17548 766.08219,93.72131 766.80864,92.63232 C 767.7176,91.36073 768.80656,90.45173 770.2609,90.08915 L 770.2609,90.08915 z M 774.07421,88.99887 C 775.34567,88.99887 776.6175,88.4537 777.34395,87.90984 C 778.07039,87.1834 778.61541,86.09311 778.61541,84.64025 C 778.61541,83.36864 778.07039,82.27835 777.34395,81.55191 C 776.6175,80.82549 775.34567,80.46162 774.07421,80.46162 C 772.62132,80.46162 771.53236,80.82549 770.80483,81.55191 C 769.89695,82.27835 769.533,83.36864 769.533,84.64025 C 769.533,86.09311 769.89695,87.1834 770.80483,87.90984 C 771.53236,88.4537 772.80274,88.99887 774.07421,88.99887 z M 774.07421,101.89599 C 775.52854,101.89599 776.79857,101.35084 777.70789,100.44183 C 778.61541,99.3528 779.34186,97.89995 779.34186,96.44579 C 779.34186,94.99293 778.79684,93.72131 777.88896,92.81362 C 777.16251,91.90588 775.70962,91.36073 774.07421,91.36073 C 772.25881,91.36073 770.98735,91.90588 770.2609,92.81362 C 769.35192,93.72131 768.80656,94.99293 768.80656,96.44579 C 768.80656,97.89995 769.35192,99.3528 770.2609,100.26054 C 771.16842,101.35084 772.62132,101.89599 774.07421,101.89599 L 774.07421,101.89599 z M 791.87508,92.63232 L 787.51531,92.63232 L 787.51531,90.99688 L 798.41419,90.99688 L 798.41419,92.63232 L 794.05442,92.63232 L 794.05442,103.71142 L 791.87508,103.71142 L 791.87508,92.63232 z" id="_146527632" style="fill:#000000;fill-rule:evenodd;stroke:#000000;stroke-width:0.01671446"/>
			
			
			
			
    
		
		
		
		</g>
		
		
		
		
  
	
	
	
	</g>
	
	
	
	




</svg>
