<?xml version="1.0" ?>
<!-- Created with Inkscape (http://www.inkscape.org/) -->
<svg height="190" id="svg118" inkscape:output_extension="org.inkscape.output.svg.inkscape" inkscape:version="0.46" sodipodi:docname="ua_3.2_prohibitory-no_motor_vehicles.svg" sodipodi:version="0.32" version="1.0" width="190.00002" xmlns="http://www.w3.org/2000/svg" xmlns:cc="http://creativecommons.org/ns#" xmlns:dc="http://purl.org/dc/elements/1.1/" xmlns:inkscape="http://www.inkscape.org/namespaces/inkscape" xmlns:rdf="http://www.w3.org/1999/02/22-rdf-syntax-ns#" xmlns:sodipodi="http://sodipodi.sourceforge.net/DTD/sodipodi-0.dtd" xmlns:svg="http://www.w3.org/2000/svg">
	
	
	
	
  
	
	
	
	<metadata id="metadata118">
		
		
		
		
    
  
		
		
	
		
		
	
		
		
	
		<rdf:RDF>
			<cc:Work rdf:about="">
				
        
				<dc:format>
					image/svg+xml
				</dc:format>
				
        
				<dc:type rdf:resource="http://purl.org/dc/dcmitype/StillImage"/>
				
        
				<dc:title>
					 sign
				</dc:title>
				
        
				<cc:license rdf:resource="http://creativecommons.org/licenses/by-nc-sa/3.0/"/>
				
        
				<dc:creator>
					
            
					<cc:Agent>
						
                
						<dc:title>
							Artem Oliynyk
						</dc:title>
						
            
					</cc:Agent>
					
        
				</dc:creator>
				
        
				<dc:rights>
					
            
					<cc:Agent>
						
                
						<dc:title>
							Artem Oliynyk
						</dc:title>
						
            
					</cc:Agent>
					
        
				</dc:rights>
				
        
				<dc:identifier>
					http://azure.km.ua/ua-vector-signs/3_Prohibitory/ua_3.2_prohibitory-no_motor_vehicles.svg
				</dc:identifier>
				
        
				<dc:language>
					uk-UA
				</dc:language>
				
        
				<dc:date>
					2010-04-24
				</dc:date>
				
    
			</cc:Work>
			<cc:License rdf:about="http://creativecommons.org/licenses/by-nc-sa/3.0/">
				
        
				<cc:permits rdf:resource="http://creativecommons.org/ns#Reproduction"/>
				
        
				<cc:permits rdf:resource="http://creativecommons.org/ns#Distribution"/>
				
        
				<cc:requires rdf:resource="http://creativecommons.org/ns#Notice"/>
				
        
				<cc:requires rdf:resource="http://creativecommons.org/ns#Attribution"/>
				
        
				<cc:prohibits rdf:resource="http://creativecommons.org/ns#CommercialUse"/>
				
        
				<cc:permits rdf:resource="http://creativecommons.org/ns#DerivativeWorks"/>
				
        
				<cc:requires rdf:resource="http://creativecommons.org/ns#ShareAlike"/>
				
    
			</cc:License>
		</rdf:RDF>
	</metadata>
	
	
	
	
  
	
	
	
	<defs id="defs118">
		
		
		
		
    
		
		
		
		<inkscape:perspective id="perspective118" inkscape:persp3d-origin="372.04724 : 350.78739 : 1" inkscape:vp_x="0 : 526.18109 : 1" inkscape:vp_y="0 : 1000 : 0" inkscape:vp_z="744.09448 : 526.18109 : 1" sodipodi:type="inkscape:persp3d"/>
		
		
		
		
    
		
		
		
		<inkscape:perspective id="perspective102" inkscape:persp3d-origin="372.04724 : 350.78739 : 1" inkscape:vp_x="0 : 526.18109 : 1" inkscape:vp_y="0 : 1000 : 0" inkscape:vp_z="744.09448 : 526.18109 : 1" sodipodi:type="inkscape:persp3d"/>
		
		
		
		
    
		
		
		
		<inkscape:perspective id="perspective3360" inkscape:persp3d-origin="372.04724 : 350.78739 : 1" inkscape:vp_x="0 : 526.18109 : 1" inkscape:vp_y="0 : 1000 : 0" inkscape:vp_z="744.09448 : 526.18109 : 1" sodipodi:type="inkscape:persp3d"/>
		
		
		
		
  
	
	
	
	</defs>
	
	
	
	
  
	
	
	
	<sodipodi:namedview bordercolor="#666666" borderopacity="1.0" gridtolerance="10.0" guidetolerance="10.0" id="base" inkscape:current-layer="svg118" inkscape:cx="95.000006" inkscape:cy="95" inkscape:guide-bbox="true" inkscape:pageopacity="0.0" inkscape:pageshadow="2" inkscape:window-height="480" inkscape:window-width="640" inkscape:zoom="4.0105263" objecttolerance="10.0" pagecolor="#ffffff" showgrid="false" showguides="false">
		
		
		
		
    
  
	
	
	
	</sodipodi:namedview>
	
	
	
	
  
	
	
	
	<g id="g3364">
		
		
		
		
    
		
		
		
		<g id="g3295" transform="translate(1.649824e-6,-3.6674862e-8)">
			
			
			
			
      
			
			
			
			<path d="M 94.999997,3.6674864e-08 C 42.56437,3.6674864e-08 -1.649824e-06,42.564369 -1.649824e-06,95.000001 C -1.649824e-06,147.43563 42.56437,190.00001 94.999997,190 C 147.43564,190 189.99999,147.43563 190.00001,95.000001 C 190.00001,42.564369 147.43564,3.6674864e-08 94.999997,3.6674864e-08 z M 94.999997,0.61688316 C 147.09656,0.61688316 189.38312,42.903442 189.38312,95.000001 C 189.38311,147.09656 147.09656,189.38312 94.999997,189.38312 C 42.903447,189.38313 0.61688928,147.09656 0.61688928,95.000001 C 0.61688928,42.903442 42.903447,0.61688316 94.999997,0.61688316 z" id="path3174" style="fill:#000000;fill-opacity:1;fill-rule:evenodd;stroke:none;stroke-width:0.47619048;stroke-miterlimit:4;stroke-dasharray:none;stroke-opacity:1"/>
			
			
			
			
      
			
			
			
			<g id="g2514">
				
				
				
				
        
				
				
				
				<g id="g2518">
					
					
					
					
          
					
					
					
					<path d="M 94.999536,0.52549349 C 42.946377,0.52549349 0.52554931,42.946321 0.52554931,94.999474 C 0.52554931,147.05263 42.946377,189.47347 94.999536,189.47346 C 147.05268,189.47346 189.4735,147.05263 189.47351,94.999474 C 189.47351,42.946321 147.05268,0.52549349 94.999536,0.52549349 z" id="path3157" sodipodi:nodetypes="csssc" style="fill:#ffffff;fill-opacity:1;fill-rule:evenodd;stroke:none;stroke-width:16;stroke-miterlimit:4;stroke-dasharray:none;stroke-opacity:1"/>
					
					
					
					
          
					
					
					
					<g id="g3292">
						
						
						
						
            
						
						
						
						<path d="M 94.999333,5.0240299 C 45.424903,5.0240299 5.0241133,45.424819 5.0241133,94.99925 C 5.0241133,144.57368 45.424903,184.97448 94.999333,184.97447 C 144.57376,184.97447 184.97454,144.57368 184.97455,94.99925 C 184.97455,45.424819 144.57376,5.0240299 94.999333,5.0240299 z M 94.999333,23.033144 C 134.82971,23.033144 166.96544,55.168876 166.96544,94.99925 C 166.96543,134.82962 134.82971,166.96535 94.999333,166.96535 C 55.168971,166.96536 23.033227,134.82962 23.033227,94.99925 C 23.033227,55.168876 55.168959,23.033144 94.999333,23.033144 z" id="path2385" style="fill:#ff0000;fill-opacity:1;fill-rule:evenodd;stroke:none;stroke-width:16;stroke-miterlimit:4;stroke-dasharray:none;stroke-opacity:1"/>
						
						
						
						
          
					
					
					
					</g>
					
					
					
					
        
				
				
				
				</g>
				
				
				
				
      
			
			
			
			</g>
			
			
			
			
    
		
		
		
		</g>
		
		
		
		
    
		
		
		
		<g id="g3500" transform="translate(-443.93231,-8.7676721)">
			
			
			
			
      
			
			
			
			<path class="fil2 str0" d="M 491.70166,128.39483 L 510.52602,128.39483 L 510.52602,142.13542 C 510.52602,145.15816 508.18985,147.49434 505.16711,147.49434 L 497.06058,147.49434 C 494.03783,147.49434 491.70166,145.15816 491.70166,142.13542 L 491.70166,128.39483 L 491.70166,128.39483 z M 564.80171,128.39483 L 583.62606,128.39483 L 583.62606,142.13542 C 583.62606,145.15816 581.28989,147.49434 578.26715,147.49434 L 570.16062,147.49434 C 567.13788,147.49434 564.80171,145.15816 564.80171,142.13542 L 564.80171,128.39483 L 564.80171,128.39483 z M 506.95423,55.56994 L 569.06133,55.56994 C 575.10681,55.56994 577.8557,61.34025 579.77915,66.28777 L 586.92396,85.52353 C 591.18355,85.79868 594.48145,89.23415 594.48145,93.49378 L 594.48145,117.81459 C 594.48145,122.34934 590.90843,125.92109 586.37495,125.92109 L 488.95277,125.92109 C 484.4193,125.92109 480.84628,122.34934 480.84628,117.81459 L 480.84628,93.49378 C 480.84628,88.95899 484.4193,85.38724 488.95277,85.38724 L 489.09033,85.38724 L 495.96129,66.28777 C 498.15986,60.79128 500.90748,55.56994 506.95423,55.56994 L 506.95423,55.56994 z M 514.2366,63.67643 L 560.9548,63.67643 C 566.31371,63.67643 567.68688,67.38578 568.37476,69.03535 L 571.67135,77.96731 C 572.35923,79.75316 572.22163,85.38724 567.41173,85.38724 L 507.91596,85.38724 C 502.96849,85.38724 501.73161,81.4015 502.83093,78.65388 L 506.54151,69.03535 C 507.64084,66.15019 510.25086,63.67643 514.2366,63.67643 L 514.2366,63.67643 z M 501.3202,93.49378 C 505.02951,93.49378 508.05225,96.51651 508.05225,100.36342 C 508.05225,104.07399 505.02951,107.09678 501.3202,107.09678 C 497.47202,107.09678 494.44925,104.07399 494.44925,100.36342 C 494.44925,96.51651 497.47202,93.49378 501.3202,93.49378 z M 574.28268,93.49378 C 577.99199,93.49378 581.01604,96.51651 581.01604,100.36342 C 581.01604,104.07399 577.99199,107.09678 574.28268,107.09678 C 570.43577,107.09678 567.41173,104.07399 567.41173,100.36342 C 567.41173,96.51651 570.43577,93.49378 574.28268,93.49378 z" id="_146946152" style="fill:#000000;fill-rule:evenodd;stroke:#1f1a17;stroke-width:0.01671446000000000"/>
			
			
			
			
    
		
		
		
		</g>
		
		
		
		
  
	
	
	
	</g>
	
	
	
	




</svg>
