<?xml version="1.0" ?>
<!-- Created with Inkscape (http://www.inkscape.org/) -->
<svg height="167.30818" id="svg118" inkscape:output_extension="org.inkscape.output.svg.inkscape" inkscape:version="0.46" sodipodi:docname="ua_2.1_priority-give_way.svg" sodipodi:version="0.32" version="1.0" width="190.00551" xmlns="http://www.w3.org/2000/svg" xmlns:cc="http://creativecommons.org/ns#" xmlns:dc="http://purl.org/dc/elements/1.1/" xmlns:inkscape="http://www.inkscape.org/namespaces/inkscape" xmlns:rdf="http://www.w3.org/1999/02/22-rdf-syntax-ns#" xmlns:sodipodi="http://sodipodi.sourceforge.net/DTD/sodipodi-0.dtd" xmlns:svg="http://www.w3.org/2000/svg">
	
	
	
	
  
	
	
	
	<metadata id="metadata118">
		
		
		
		
    
  
		
		
	
		
		
	
		
		
	
		<rdf:RDF>
			<cc:Work rdf:about="">
				
        
				<dc:format>
					image/svg+xml
				</dc:format>
				
        
				<dc:type rdf:resource="http://purl.org/dc/dcmitype/StillImage"/>
				
        
				<dc:title>
					 sign
				</dc:title>
				
        
				<cc:license rdf:resource="http://creativecommons.org/licenses/by-nc-sa/3.0/"/>
				
        
				<dc:creator>
					
            
					<cc:Agent>
						
                
						<dc:title>
							Artem Oliynyk
						</dc:title>
						
            
					</cc:Agent>
					
        
				</dc:creator>
				
        
				<dc:rights>
					
            
					<cc:Agent>
						
                
						<dc:title>
							Artem Oliynyk
						</dc:title>
						
            
					</cc:Agent>
					
        
				</dc:rights>
				
        
				<dc:identifier>
					http://azure.km.ua/ua-vector-signs/2_Priority/ua_2.1_priority-give_way.svg
				</dc:identifier>
				
        
				<dc:language>
					uk-UA
				</dc:language>
				
        
				<dc:date>
					2010-04-24
				</dc:date>
				
    
			</cc:Work>
			<cc:License rdf:about="http://creativecommons.org/licenses/by-nc-sa/3.0/">
				
        
				<cc:permits rdf:resource="http://creativecommons.org/ns#Reproduction"/>
				
        
				<cc:permits rdf:resource="http://creativecommons.org/ns#Distribution"/>
				
        
				<cc:requires rdf:resource="http://creativecommons.org/ns#Notice"/>
				
        
				<cc:requires rdf:resource="http://creativecommons.org/ns#Attribution"/>
				
        
				<cc:prohibits rdf:resource="http://creativecommons.org/ns#CommercialUse"/>
				
        
				<cc:permits rdf:resource="http://creativecommons.org/ns#DerivativeWorks"/>
				
        
				<cc:requires rdf:resource="http://creativecommons.org/ns#ShareAlike"/>
				
    
			</cc:License>
		</rdf:RDF>
	</metadata>
	
	
	
	
  
	
	
	
	<defs id="defs118">
		
		
		
		
    
		
		
		
		<inkscape:perspective id="perspective118" inkscape:persp3d-origin="372.04724 : 350.78739 : 1" inkscape:vp_x="0 : 526.18109 : 1" inkscape:vp_y="0 : 1000 : 0" inkscape:vp_z="744.09448 : 526.18109 : 1" sodipodi:type="inkscape:persp3d"/>
		
		
		
		
  
	
	
	
	</defs>
	
	
	
	
  
	
	
	
	<sodipodi:namedview bordercolor="#666666" borderopacity="1.0" gridtolerance="10.0" guidetolerance="10.0" id="base" inkscape:current-layer="svg118" inkscape:cx="312.93882" inkscape:cy="-10.733737" inkscape:guide-bbox="true" inkscape:pageopacity="0.0" inkscape:pageshadow="2" inkscape:window-height="480" inkscape:window-width="640" inkscape:zoom="1" objecttolerance="10.0" pagecolor="#ffffff" showgrid="false" showguides="false">
		
		
		
		
    
  
	
	
	
	</sodipodi:namedview>
	
	
	
	
  
	
	
	
	<g id="g3759" transform="matrix(-2.2629845,2.0380761e-2,-2.0380775e-2,-2.2629861,234.2214,1112.1194)">
		
		
		
		
    
		
		
		
		<g id="g3755">
			
			
			
			
      
			
			
			
			<path d="M 57.46875,418.03125 C 55.585064,418.10657 53.866969,419.13382 52.90625,420.75 L 15.9375,483.28125 C 14.930707,484.98701 14.89562,487.09097 15.875,488.8125 C 16.854379,490.53404 18.701523,491.60876 20.6875,491.625 L 93.53125,492.28125 C 95.513431,492.2956 97.336384,491.23226 98.34375,489.53125 C 99.351112,487.83022 99.377908,485.72151 98.40625,484 L 62.5625,420.84375 C 61.533898,419.03399 59.554232,417.94346 57.46875,418.03125 z" id="path3752" sodipodi:nodetypes="cccsccsccc" style="opacity:1;fill:#ffffff;fill-opacity:1;fill-rule:nonzero;stroke:none;stroke-width:0.30000001;stroke-linecap:round;stroke-linejoin:miter;stroke-miterlimit:4;stroke-dasharray:none;stroke-opacity:1"/>
			
			
			
			
      
			
			
			
			<path d="M 57.46875,418.03125 C 55.585064,418.10657 53.866969,419.13382 52.90625,420.75 L 15.9375,483.28125 C 14.930707,484.98701 14.89562,487.09097 15.875,488.8125 C 16.854379,490.53404 18.701523,491.60876 20.6875,491.625 L 93.53125,492.28125 C 95.513431,492.2956 97.336384,491.23226 98.34375,489.53125 C 99.351112,487.83022 99.377908,485.72151 98.40625,484 L 62.5625,420.84375 C 61.533898,419.03399 59.554232,417.94346 57.46875,418.03125 z M 57.5,418.34375 C 59.473996,418.26066 61.308113,419.28783 62.28125,421 L 98.15625,484.15625 C 99.075462,485.78484 99.046752,487.79701 98.09375,489.40625 C 97.140746,491.01546 95.407372,491.98233 93.53125,491.96875 L 20.6875,491.3125 C 18.807781,491.29712 17.08277,490.28487 16.15625,488.65625 C 15.229728,487.02764 15.235036,485.01996 16.1875,483.40625 L 53.1875,420.90625 C 54.096337,419.37735 55.717181,418.41504 57.5,418.34375 z" id="path3679" sodipodi:nodetypes="cccsccsccccccsccsccc" style="opacity:1;fill:#000000;fill-opacity:1;fill-rule:nonzero;stroke:none;stroke-width:0.30000001;stroke-linecap:round;stroke-linejoin:miter;stroke-miterlimit:4;stroke-dasharray:none;stroke-opacity:1"/>
			
			
			
			
    
		
		
		
		</g>
		
		
		
		
    
		
		
		
		<path d="M 57.552125,420.06442 C 56.367128,420.12533 55.293401,420.77891 54.698413,421.8015 L 17.690749,484.31391 C 17.060097,485.38844 17.051047,486.71604 17.666993,487.79901 C 18.282939,488.88197 19.430836,489.55671 20.680352,489.57027 L 93.54061,490.2245 C 94.79233,490.23385 95.95417,489.57798 96.58924,488.50353 C 97.22432,487.42908 97.23634,486.09893 96.6208,485.01325 L 60.768214,421.84662 C 60.12034,420.69502 58.876103,420.00552 57.552125,420.06442 z M 57.642719,430.55459 L 87.53875,483.18593 L 26.818098,482.6445 L 57.642719,430.55459 z" id="path3668" style="opacity:1;fill:#ff0000;fill-opacity:1;stroke:none;stroke-width:9.67750454;stroke-linecap:round;stroke-linejoin:round;stroke-miterlimit:4;stroke-dasharray:none;stroke-opacity:1"/>
		
		
		
		
  
	
	
	
	</g>
	
	
	
	




</svg>
