<?xml version="1.0" ?>
<!-- Created with Inkscape (http://www.inkscape.org/) -->
<svg height="190" id="svg106" inkscape:output_extension="org.inkscape.output.svg.inkscape" inkscape:version="0.46" sodipodi:docname="ua_2.2_priority-stop.svg" sodipodi:version="0.32" version="1.0" width="190.00002" xmlns="http://www.w3.org/2000/svg" xmlns:cc="http://creativecommons.org/ns#" xmlns:dc="http://purl.org/dc/elements/1.1/" xmlns:inkscape="http://www.inkscape.org/namespaces/inkscape" xmlns:rdf="http://www.w3.org/1999/02/22-rdf-syntax-ns#" xmlns:sodipodi="http://sodipodi.sourceforge.net/DTD/sodipodi-0.dtd" xmlns:svg="http://www.w3.org/2000/svg">
	
	
	
	
  
	
	
	
	<metadata id="metadata106">
		
		
		
		
    
  
		
		
	
		
		
	
		
		
	
		<rdf:RDF>
			<cc:Work rdf:about="">
				
        
				<dc:format>
					image/svg+xml
				</dc:format>
				
        
				<dc:type rdf:resource="http://purl.org/dc/dcmitype/StillImage"/>
				
        
				<dc:title>
					 sign
				</dc:title>
				
        
				<cc:license rdf:resource="http://creativecommons.org/licenses/by-nc-sa/3.0/"/>
				
        
				<dc:creator>
					
            
					<cc:Agent>
						
                
						<dc:title>
							Artem Oliynyk
						</dc:title>
						
            
					</cc:Agent>
					
        
				</dc:creator>
				
        
				<dc:rights>
					
            
					<cc:Agent>
						
                
						<dc:title>
							Artem Oliynyk
						</dc:title>
						
            
					</cc:Agent>
					
        
				</dc:rights>
				
        
				<dc:identifier>
					http://azure.km.ua/ua-vector-signs/2_Priority/ua_2.2_priority-stop.svg
				</dc:identifier>
				
        
				<dc:language>
					uk-UA
				</dc:language>
				
        
				<dc:date>
					2010-04-24
				</dc:date>
				
    
			</cc:Work>
			<cc:License rdf:about="http://creativecommons.org/licenses/by-nc-sa/3.0/">
				
        
				<cc:permits rdf:resource="http://creativecommons.org/ns#Reproduction"/>
				
        
				<cc:permits rdf:resource="http://creativecommons.org/ns#Distribution"/>
				
        
				<cc:requires rdf:resource="http://creativecommons.org/ns#Notice"/>
				
        
				<cc:requires rdf:resource="http://creativecommons.org/ns#Attribution"/>
				
        
				<cc:prohibits rdf:resource="http://creativecommons.org/ns#CommercialUse"/>
				
        
				<cc:permits rdf:resource="http://creativecommons.org/ns#DerivativeWorks"/>
				
        
				<cc:requires rdf:resource="http://creativecommons.org/ns#ShareAlike"/>
				
    
			</cc:License>
		</rdf:RDF>
	</metadata>
	
	
	
	
  
	
	
	
	<defs id="defs106">
		
		
		
		
    
		
		
		
		<inkscape:perspective id="perspective106" inkscape:persp3d-origin="372.04724 : 350.78739 : 1" inkscape:vp_x="0 : 526.18109 : 1" inkscape:vp_y="0 : 1000 : 0" inkscape:vp_z="744.09448 : 526.18109 : 1" sodipodi:type="inkscape:persp3d"/>
		
		
		
		
  
	
	
	
	</defs>
	
	
	
	
  
	
	
	
	<sodipodi:namedview bordercolor="#666666" borderopacity="1.0" gridtolerance="10.0" guidetolerance="10.0" id="base" inkscape:current-layer="svg106" inkscape:cx="195.71282" inkscape:cy="75.493595" inkscape:guide-bbox="true" inkscape:pageopacity="0.0" inkscape:pageshadow="2" inkscape:window-height="480" inkscape:window-width="640" inkscape:zoom="2.8284271" objecttolerance="10.0" pagecolor="#ffffff" showgrid="false" showguides="false">
		
		
		
		
    
    
    
  
	
	
	
	</sodipodi:namedview>
	
	
	
	
  
	
	
	
	<g id="g3198" transform="matrix(0.9895867,0,0,0.9895929,-70.279402,-311.95833)">
		
		
		
		
    
		
		
		
		<g id="g3184">
			
			
			
			
      
			
			
			
			<g id="g3175">
				
				
				
				
        
				
				
				
				<path d="M 127.54281,315.98886 L 71.768764,371.79118 L 71.769961,450.67364 L 127.57074,506.48719 L 206.45474,506.44648 L 262.2683,450.6457 L 262.22758,371.76171 L 206.46478,315.98921 L 127.54281,315.98886 z" id="path3173" sodipodi:nodetypes="ccccccccc" style="fill:#ffffff;fill-opacity:1;fill-rule:nonzero;stroke:none;stroke-width:1.56795442;stroke-linecap:round;stroke-linejoin:miter;stroke-miterlimit:4;stroke-opacity:1"/>
				
				
				
				
        
				
				
				
				<path d="M 127.2321,315.23905 L 71.018944,371.48071 L 71.02015,450.98421 L 127.26025,507.23719 L 206.76531,507.19616 L 263.0183,450.95605 L 262.97726,371.451 L 206.77543,315.2394 L 127.2321,315.23905 z M 205.94074,317.20131 L 260.98973,372.29074 L 261.015,450.15964 L 205.96539,505.21019 L 128.05667,505.23389 L 73.047508,450.14602 L 72.980857,372.3154 L 128.03046,317.26485 L 205.94074,317.20131 z" id="path2394" sodipodi:nodetypes="cccccccccccccccccc" style="fill:#000000;fill-opacity:1;fill-rule:nonzero;stroke:none;stroke-width:1.56795442;stroke-linecap:round;stroke-linejoin:miter;stroke-miterlimit:4;stroke-opacity:1"/>
				
				
				
				
      
			
			
			
			</g>
			
			
			
			
      
			
			
			
			<path d="M 57.875 5.4375 L 5.4375 57.90625 L 5.4375 132.09375 L 57.90625 184.53125 L 132.09375 184.53125 L 184.53125 132.0625 L 184.53125 57.875 L 132.0625 5.4375 L 57.875 5.4375 z M 41.5 69.84375 C 45.877291 69.843791 49.210064 70.876197 51.5 72.96875 C 53.805458 75.041455 55.188795 78.362362 55.625 82.90625 L 45.65625 83.65625 C 45.391408 81.683264 44.825498 80.240611 43.96875 79.34375 C 43.12754 78.44696 41.964184 78.000036 40.46875 78 C 39.238101 78.000035 38.310591 78.353683 37.6875 79.03125 C 37.064384 79.688958 36.749987 80.480918 36.75 81.4375 C 36.749986 82.135065 36.985925 82.754506 37.5 83.3125 C 37.998469 83.890484 39.19317 84.439293 41.0625 84.9375 C 45.689033 86.213015 49.006039 87.49718 51 88.8125 C 53.009483 90.107938 54.471467 91.723112 55.375 93.65625 C 56.294047 95.589428 56.749967 97.764728 56.75 100.15625 C 56.749967 102.96632 56.152522 105.5659 54.9375 107.9375 C 53.722415 110.30911 52.024589 112.10812 49.84375 113.34375 C 47.66286 114.55945 44.911763 115.15625 41.59375 115.15625 C 35.767708 115.15625 31.71192 113.7136 29.46875 110.84375 C 27.225568 107.97391 25.952223 104.33061 25.65625 99.90625 L 35.75 99.09375 C 35.968073 101.18636 36.39265 102.77889 37.0625 103.875 C 38.152919 105.64873 39.724893 106.56251 41.75 106.5625 C 43.26101 106.56251 44.408693 106.11559 45.21875 105.21875 C 46.044342 104.302 46.468728 103.22703 46.46875 102.03125 C 46.468727 100.89528 46.060109 99.896842 45.28125 99 C 44.502349 98.103187 42.710109 97.234697 39.875 96.4375 C 35.232858 95.102247 31.91585 93.337195 29.9375 91.125 C 27.943561 88.912855 26.968747 86.084151 26.96875 82.65625 C 26.968746 80.404253 27.456201 78.305485 28.46875 76.3125 C 29.496867 74.29966 31.021824 72.698523 33.0625 71.5625 C 35.118737 70.406632 37.93271 69.843795 41.5 69.84375 z M 111.4375 69.84375 C 117.13888 69.843791 121.5406 71.792683 124.625 75.71875 C 127.70933 79.624967 129.24996 85.101239 129.25 92.15625 C 129.24996 97.278146 128.57397 101.4929 127.21875 104.78125 C 125.87904 108.0497 123.9297 110.60399 121.375 112.4375 C 118.83582 114.25108 115.67592 115.15625 111.875 115.15625 C 108.01174 115.15625 104.78914 114.38693 102.25 112.8125 C 99.726414 111.23807 97.698334 108.72045 96.125 105.3125 C 94.55166 101.90457 93.749998 97.653146 93.75 92.53125 C 93.749999 85.376595 95.321972 79.798433 98.4375 75.8125 C 101.55302 71.826645 105.87627 69.843795 111.4375 69.84375 z M 59.6875 70.59375 L 91.875 70.59375 L 91.875 81.40625 L 81.0625 81.40625 L 81.0625 114.40625 L 70.5 114.40625 L 70.5 81.40625 L 59.6875 81.40625 L 59.6875 70.59375 z M 134.9375 70.59375 L 152.5625 70.59375 C 156.39457 70.593794 159.25575 71.762042 161.15625 74.09375 C 163.07226 76.425537 164.03122 79.726514 164.03125 84.03125 C 164.03122 88.455623 162.96237 91.915086 160.875 94.40625 C 158.80315 96.897456 155.64324 98.156266 151.375 98.15625 L 145.59375 98.15625 L 145.59375 114.40625 L 134.9375 114.40625 L 134.9375 70.59375 z M 145.59375 79.5 L 145.59375 89.28125 L 148.1875 89.28125 C 150.22814 89.281275 151.64312 88.834353 152.46875 87.9375 C 153.29434 87.020768 153.71873 85.852523 153.71875 84.4375 C 153.71873 83.062395 153.3728 81.894148 152.65625 80.9375 C 151.93966 79.980919 150.57209 79.500035 148.59375 79.5 L 145.59375 79.5 z M 111.4375 80.09375 C 109.30335 80.093782 107.57418 81.066873 106.28125 83 C 104.98829 84.933187 104.34374 88.12957 104.34375 92.59375 C 104.34373 97.018115 104.97262 100.19185 106.25 102.125 C 107.54293 104.05817 109.31921 105.03126 111.53125 105.03125 C 113.80556 105.03126 115.56627 104.08081 116.8125 102.1875 C 118.05868 100.29421 118.65622 96.902673 118.65625 92 C 118.65622 87.874622 118.02724 84.862081 116.71875 82.96875 C 115.42578 81.055554 113.66508 80.093784 111.4375 80.09375 z " id="path3166" style="opacity:1;fill:#ff0000;fill-opacity:1;fill-rule:nonzero;stroke:none;stroke-width:3;stroke-linecap:round;stroke-linejoin:miter;stroke-miterlimit:4;stroke-dasharray:none;stroke-opacity:1" transform="matrix(1.0105229,0,0,1.0105165,71.018944,315.23905)"/>
			
			
			
			
    
		
		
		
		</g>
		
		
		
		
  
	
	
	
	</g>
	
	
	
	




</svg>
