<?xml version="1.0" ?>
<!-- Created with Inkscape (http://www.inkscape.org/) -->
<svg height="118.75124" id="svg4430" inkscape:output_extension="org.inkscape.output.svg.inkscape" inkscape:version="0.46" sodipodi:docname="ua_7.3.3_additional-effect_direction.svg" sodipodi:version="0.32" version="1.0" width="237.50121" xmlns="http://www.w3.org/2000/svg" xmlns:cc="http://creativecommons.org/ns#" xmlns:dc="http://purl.org/dc/elements/1.1/" xmlns:inkscape="http://www.inkscape.org/namespaces/inkscape" xmlns:rdf="http://www.w3.org/1999/02/22-rdf-syntax-ns#" xmlns:sodipodi="http://sodipodi.sourceforge.net/DTD/sodipodi-0.dtd" xmlns:svg="http://www.w3.org/2000/svg">
	
	
	
	
  
	
	
	
	<metadata id="metadata4435">
		
		
		
		
    
  
		
		
	
		
		
	
		
		
	
		<rdf:RDF>
			<cc:Work rdf:about="">
				
        
				<dc:format>
					image/svg+xml
				</dc:format>
				
        
				<dc:type rdf:resource="http://purl.org/dc/dcmitype/StillImage"/>
				
        
				<dc:title>
					 sign
				</dc:title>
				
        
				<cc:license rdf:resource="http://creativecommons.org/licenses/by-nc-sa/3.0/"/>
				
        
				<dc:creator>
					
            
					<cc:Agent>
						
                
						<dc:title>
							Artem Oliynyk
						</dc:title>
						
            
					</cc:Agent>
					
        
				</dc:creator>
				
        
				<dc:rights>
					
            
					<cc:Agent>
						
                
						<dc:title>
							Artem Oliynyk
						</dc:title>
						
            
					</cc:Agent>
					
        
				</dc:rights>
				
        
				<dc:identifier>
					http://azure.km.ua/ua-vector-signs/7_Additional/ua_7.3.3_additional-effect_direction.svg
				</dc:identifier>
				
        
				<dc:language>
					uk-UA
				</dc:language>
				
        
				<dc:date>
					2010-04-24
				</dc:date>
				
    
			</cc:Work>
			<cc:License rdf:about="http://creativecommons.org/licenses/by-nc-sa/3.0/">
				
        
				<cc:permits rdf:resource="http://creativecommons.org/ns#Reproduction"/>
				
        
				<cc:permits rdf:resource="http://creativecommons.org/ns#Distribution"/>
				
        
				<cc:requires rdf:resource="http://creativecommons.org/ns#Notice"/>
				
        
				<cc:requires rdf:resource="http://creativecommons.org/ns#Attribution"/>
				
        
				<cc:prohibits rdf:resource="http://creativecommons.org/ns#CommercialUse"/>
				
        
				<cc:permits rdf:resource="http://creativecommons.org/ns#DerivativeWorks"/>
				
        
				<cc:requires rdf:resource="http://creativecommons.org/ns#ShareAlike"/>
				
    
			</cc:License>
		</rdf:RDF>
	</metadata>
	
	
	
	
  
	
	
	
	<defs id="defs4433">
		
		
		
		
    
		
		
		
		<inkscape:perspective id="perspective4437" inkscape:persp3d-origin="372.04724 : 350.78739 : 1" inkscape:vp_x="0 : 526.18109 : 1" inkscape:vp_y="0 : 1000 : 0" inkscape:vp_z="744.09448 : 526.18109 : 1" sodipodi:type="inkscape:persp3d"/>
		
		
		
		
  
	
	
	
	</defs>
	
	
	
	
  
	
	
	
	<sodipodi:namedview bordercolor="#666666" borderopacity="1.0" gridtolerance="10.0" guidetolerance="10.0" id="base" inkscape:current-layer="svg4430" inkscape:cx="118.75055" inkscape:cy="65.574288" inkscape:pageopacity="0.0" inkscape:pageshadow="2" inkscape:window-height="993" inkscape:window-width="1680" inkscape:window-x="0" inkscape:window-y="0" inkscape:zoom="6.3915118" objecttolerance="10.0" pagecolor="#ffffff" showgrid="false"/>
	
	
	
	
  
	
	
	
	<g id="g3681" style="fill-rule:evenodd" transform="matrix(12.95308,0,0,12.95308,-1087.0834,-1380.889)">
		
		
		
		
    
		
		
		
		<path class="fil2 str0" d="M 84.6361,106.607 L 101.5489,106.607 C 101.9401,106.607 102.2602,107.0153 102.2602,107.5143 L 102.2602,114.8674 C 102.2602,115.3665 101.9401,115.7748 101.5489,115.7748 L 84.6361,115.7748 C 84.2448,115.7748 83.9247,115.3665 83.9247,114.8674 L 83.9247,107.5143 C 83.9247,107.0153 84.2448,106.607 84.6361,106.607 z" id="path2554" sodipodi:nodetypes="ccccccccc" style="fill:#ffffff;stroke:#000000;stroke-width:0.00035561000000000"/>
		
		
		
		
    
		
		
		
		<path class="fil2 str0" d="M 84.6361,106.607 L 101.5489,106.607 C 101.9401,106.607 102.2602,107.0153 102.2602,107.5143 L 102.2602,114.8674 C 102.2602,115.3665 101.9401,115.7748 101.5489,115.7748 L 84.6361,115.7748 C 84.2448,115.7748 83.9247,115.3665 83.9247,114.8674 L 83.9247,107.5143 C 83.9247,107.0153 84.2448,106.607 84.6361,106.607 z M 84.7338,107.0441 L 101.4512,107.0441 C 101.649,107.0441 101.8109,107.2403 101.8109,107.4801 L 101.8109,114.8931 C 101.8109,115.1329 101.649,115.3292 101.4512,115.3292 L 84.7338,115.3292 C 84.5359,115.3292 84.374,115.1329 84.374,114.8931 L 84.374,107.4801 C 84.374,107.2403 84.5359,107.0441 84.7338,107.0441 z" id="_144432728" style="fill:#000000;stroke:#000000;stroke-width:0.00035561"/>
		
		
		
		
    
		
		
		
		<polygon class="fil2 str0" id="_144431984" points="87.5192,110.447 98.3998,110.447 98.3886,109.719 100.89,111.232 98.4349,112.716 98.4243,112.031 87.4946,112.031 87.4841,112.716 85.0289,111.232 87.5304,109.719 87.5192,110.447 " style="fill:#000000;stroke:#000000;stroke-width:0.00035561"/>
		
		
		
		
  
	
	
	
	</g>
	
	
	
	




</svg>
