<?xml version="1.0" ?>
<!-- Created with Inkscape (http://www.inkscape.org/) -->
<svg height="118.75124" id="svg4308" inkscape:output_extension="org.inkscape.output.svg.inkscape" inkscape:version="0.46" sodipodi:docname="ua_7.2.1_additional-effect_distance_100m.svg" sodipodi:version="0.32" version="1.0" width="237.50121" xmlns="http://www.w3.org/2000/svg" xmlns:cc="http://creativecommons.org/ns#" xmlns:dc="http://purl.org/dc/elements/1.1/" xmlns:inkscape="http://www.inkscape.org/namespaces/inkscape" xmlns:rdf="http://www.w3.org/1999/02/22-rdf-syntax-ns#" xmlns:sodipodi="http://sodipodi.sourceforge.net/DTD/sodipodi-0.dtd" xmlns:svg="http://www.w3.org/2000/svg">
	
	
	
	
  
	
	
	
	<defs id="defs4310">
		
		
		
		
    
		
		
		
		<inkscape:perspective id="perspective4316" inkscape:persp3d-origin="372.04724 : 350.78739 : 1" inkscape:vp_x="0 : 526.18109 : 1" inkscape:vp_y="0 : 1000 : 0" inkscape:vp_z="744.09448 : 526.18109 : 1" sodipodi:type="inkscape:persp3d"/>
		
		
		
		
  
	
	
	
	</defs>
	
	
	
	
  
	
	
	
	<sodipodi:namedview bordercolor="#666666" borderopacity="1.0" gridtolerance="10000" guidetolerance="10" id="base" inkscape:current-layer="layer1" inkscape:cx="118.7506" inkscape:cy="59.37562" inkscape:document-units="px" inkscape:pageopacity="0.0" inkscape:pageshadow="2" inkscape:window-height="993" inkscape:window-width="1680" inkscape:window-x="0" inkscape:window-y="0" inkscape:zoom="2.4252509" objecttolerance="10" pagecolor="#ffffff" showgrid="false"/>
	
	
	
	
  
	
	
	
	<metadata id="metadata4313">
		
		
		
		
    
  
		
		
	
		
		
	
		
		
	
		<rdf:RDF>
			<cc:Work rdf:about="">
				
        
				<dc:format>
					image/svg+xml
				</dc:format>
				
        
				<dc:type rdf:resource="http://purl.org/dc/dcmitype/StillImage"/>
				
        
				<dc:title>
					 sign
				</dc:title>
				
        
				<cc:license rdf:resource="http://creativecommons.org/licenses/by-nc-sa/3.0/"/>
				
        
				<dc:creator>
					
            
					<cc:Agent>
						
                
						<dc:title>
							Artem Oliynyk
						</dc:title>
						
            
					</cc:Agent>
					
        
				</dc:creator>
				
        
				<dc:rights>
					
            
					<cc:Agent>
						
                
						<dc:title>
							Artem Oliynyk
						</dc:title>
						
            
					</cc:Agent>
					
        
				</dc:rights>
				
        
				<dc:identifier>
					http://azure.km.ua/ua-vector-signs/7_Additional/ua_7.2.1_additional-effect_distance_100m.svg
				</dc:identifier>
				
        
				<dc:language>
					uk-UA
				</dc:language>
				
        
				<dc:date>
					2010-04-24
				</dc:date>
				
    
			</cc:Work>
			<cc:License rdf:about="http://creativecommons.org/licenses/by-nc-sa/3.0/">
				
        
				<cc:permits rdf:resource="http://creativecommons.org/ns#Reproduction"/>
				
        
				<cc:permits rdf:resource="http://creativecommons.org/ns#Distribution"/>
				
        
				<cc:requires rdf:resource="http://creativecommons.org/ns#Notice"/>
				
        
				<cc:requires rdf:resource="http://creativecommons.org/ns#Attribution"/>
				
        
				<cc:prohibits rdf:resource="http://creativecommons.org/ns#CommercialUse"/>
				
        
				<cc:permits rdf:resource="http://creativecommons.org/ns#DerivativeWorks"/>
				
        
				<cc:requires rdf:resource="http://creativecommons.org/ns#ShareAlike"/>
				
    
			</cc:License>
		</rdf:RDF>
	</metadata>
	
	
	
	
  
	
	
	
	<g id="layer1" inkscape:groupmode="layer" inkscape:label="Layer 1" transform="translate(-146.96366,-138.70081)">
		
		
		
		
    
		
		
		
		<g id="g3734" style="fill-rule:evenodd" transform="matrix(12.95308,0,0,12.95308,-1209.9181,-1042.6991)">
			
			
			
			
      
			
			
			
			<path class="fil2 str0" d="M 105.465,91.2061 L 122.3778,91.2061 C 122.769,91.2061 123.0891,91.6144 123.0891,92.1134 L 123.0891,99.4665 C 123.0891,99.9656 122.769,100.3739 122.3778,100.3739 L 105.465,100.3739 C 105.0737,100.3739 104.7536,99.9656 104.7536,99.4665 L 104.7536,92.1134 C 104.7536,91.6144 105.0737,91.2061 105.465,91.2061 z" id="path2570" sodipodi:nodetypes="ccccccccc" style="fill:#ffffff;stroke:#000000;stroke-width:0.00035561000000000"/>
			
			
			
			
      
			
			
			
			<path class="fil2 str0" d="M 105.465,91.2061 L 122.3778,91.2061 C 122.769,91.2061 123.0891,91.6144 123.0891,92.1134 L 123.0891,99.4665 C 123.0891,99.9656 122.769,100.3739 122.3778,100.3739 L 105.465,100.3739 C 105.0737,100.3739 104.7536,99.9656 104.7536,99.4665 L 104.7536,92.1134 C 104.7536,91.6144 105.0737,91.2061 105.465,91.2061 z M 105.5627,91.6432 L 122.2801,91.6432 C 122.4779,91.6432 122.6398,91.8394 122.6398,92.0792 L 122.6398,99.4922 C 122.6398,99.732 122.4779,99.9283 122.2801,99.9283 L 105.5627,99.9283 C 105.3648,99.9283 105.2029,99.732 105.2029,99.4922 L 105.2029,92.0792 C 105.2029,91.8394 105.3648,91.6432 105.5627,91.6432 z" id="_144374992" style="fill:#000000;stroke:#000000;stroke-width:0.00035561"/>
			
			
			
			
      
			
			
			
			<polygon class="fil2 str0" id="_144374192" points="106.794,97.9975 106.794,95.5804 106.308,95.5893 107.319,93.611 108.31,95.5526 107.852,95.561 107.852,97.9975 106.794,97.9975 " style="fill:#000000;stroke:#000000;stroke-width:0.00035561"/>
			
			
			
			
      
			
			
			
			<polygon class="fil2 str0" id="_144375728" points="120.067,97.8467 120.067,95.4295 119.581,95.4385 120.591,93.4602 121.583,95.4018 121.125,95.4102 121.125,97.8467 120.067,97.8467 " style="fill:#000000;stroke:#000000;stroke-width:0.00035561"/>
			
			
			
			
      
			
			
			
			<path class="fil2 str0" d="M 110.975,97.1801 L 110.5394,97.1801 L 110.5394,95.3409 C 110.3802,95.5081 110.1928,95.6314 109.9764,95.7108 L 109.9764,95.268 C 110.087,95.2277 110.2103,95.1489 110.3463,95.0321 C 110.4823,94.9154 110.5738,94.779 110.6215,94.6238 L 110.975,94.6238 L 110.975,97.1801 L 110.975,97.1801 z M 112.5158,94.6238 C 112.7619,94.6238 112.9466,94.7322 113.0694,94.9486 C 113.1927,95.1655 113.2541,95.4903 113.2541,95.9248 C 113.2541,96.3575 113.1927,96.6823 113.0694,96.8986 C 112.9466,97.1155 112.7619,97.2234 112.5158,97.2234 C 112.2867,97.2234 112.1062,97.125 111.975,96.9282 C 111.8438,96.7315 111.7781,96.3954 111.7781,95.9194 C 111.7781,95.4879 111.8395,95.1637 111.9623,94.948 C 112.0856,94.7322 112.2698,94.6238 112.5158,94.6238 z M 112.5158,95.0286 C 112.4169,95.0286 112.3449,95.0902 112.3005,95.2129 C 112.256,95.3356 112.2338,95.5727 112.2338,95.9248 C 112.2338,96.2786 112.256,96.5163 112.301,96.6372 C 112.346,96.7587 112.4179,96.8192 112.5158,96.8192 C 112.6153,96.8192 112.6868,96.7581 112.7312,96.6366 C 112.7757,96.5151 112.7979,96.278 112.7979,95.9248 C 112.7979,95.5727 112.7757,95.3356 112.7312,95.2129 C 112.6868,95.0902 112.6153,95.0286 112.5158,95.0286 L 112.5158,95.0286 z M 114.4351,94.6238 C 114.6812,94.6238 114.8658,94.7322 114.9886,94.9486 C 115.1119,95.1655 115.1733,95.4903 115.1733,95.9248 C 115.1733,96.3575 115.1119,96.6823 114.9886,96.8986 C 114.8658,97.1155 114.6812,97.2234 114.4351,97.2234 C 114.2059,97.2234 114.0255,97.125 113.8942,96.9282 C 113.763,96.7315 113.6974,96.3954 113.6974,95.9194 C 113.6974,95.4879 113.7588,95.1637 113.8816,94.948 C 114.0048,94.7322 114.189,94.6238 114.4351,94.6238 L 114.4351,94.6238 z M 114.4351,95.0286 C 114.3361,95.0286 114.2642,95.0902 114.2197,95.2129 C 114.1753,95.3356 114.153,95.5727 114.153,95.9248 C 114.153,96.2786 114.1753,96.5163 114.2202,96.6372 C 114.2652,96.7587 114.3372,96.8192 114.4351,96.8192 C 114.5346,96.8192 114.606,96.7581 114.6505,96.6366 C 114.6949,96.5151 114.7171,96.278 114.7171,95.9248 C 114.7171,95.5727 114.6949,95.3356 114.6505,95.2129 C 114.606,95.0902 114.5346,95.0286 114.4351,95.0286 L 114.4351,95.0286 z M 116.446,95.3362 L 116.9858,95.3362 L 117.3948,96.6212 L 117.8071,95.3362 L 118.3453,95.3362 L 118.3453,97.1801 L 117.9748,97.1801 L 117.9748,95.9663 L 117.5732,97.1801 L 117.2011,97.1801 L 116.818,95.9663 L 116.818,97.1801 L 116.446,97.1801 L 116.446,95.3362 z" id="_144369696" style="fill:#000000;stroke:#000000;stroke-width:0.00035561"/>
			
			
			
			
    
		
		
		
		</g>
		
		
		
		
  
	
	
	
	</g>
	
	
	
	




</svg>
