<?xml version="1.0" ?>
<!-- Created with Inkscape (http://www.inkscape.org/) -->
<svg height="95.004951" id="svg3264" inkscape:output_extension="org.inkscape.output.svg.inkscape" inkscape:version="0.47 r22583" sodipodi:docname="ua_7.1.1_additional-object_distance_300m.svg" sodipodi:version="0.32" version="1.0" width="190" xmlns="http://www.w3.org/2000/svg" xmlns:cc="http://creativecommons.org/ns#" xmlns:dc="http://purl.org/dc/elements/1.1/" xmlns:inkscape="http://www.inkscape.org/namespaces/inkscape" xmlns:rdf="http://www.w3.org/1999/02/22-rdf-syntax-ns#" xmlns:sodipodi="http://sodipodi.sourceforge.net/DTD/sodipodi-0.dtd" xmlns:svg="http://www.w3.org/2000/svg">
	
	
  
	
	<sodipodi:namedview bordercolor="#666666" borderopacity="1.0" gridtolerance="10000" guidetolerance="10" id="base" inkscape:current-layer="layer1" inkscape:cx="214.85461" inkscape:cy="0.6821249" inkscape:document-units="px" inkscape:pageopacity="0.0" inkscape:pageshadow="2" inkscape:window-height="993" inkscape:window-maximized="1" inkscape:window-width="1680" inkscape:window-x="0" inkscape:window-y="0" inkscape:zoom="2" objecttolerance="10" pagecolor="#ffffff" showgrid="false"/>
	
	
  
	
	<defs id="defs3266">
		
		
    
		
		<inkscape:perspective id="perspective3272" inkscape:persp3d-origin="372.04724 : 350.78739 : 1" inkscape:vp_x="0 : 526.18109 : 1" inkscape:vp_y="0 : 1000 : 0" inkscape:vp_z="744.09448 : 526.18109 : 1" sodipodi:type="inkscape:persp3d"/>
		
		
  
	
	</defs>
	
	
  
	
	<metadata id="metadata3269">
		
		
    
		
  
		
		
	
		<rdf:RDF>
			<cc:Work rdf:about="">
				
        
				<dc:format>
					image/svg+xml
				</dc:format>
				
        
				<dc:type rdf:resource="http://purl.org/dc/dcmitype/StillImage"/>
				
        
				<dc:title>
					 sign
				</dc:title>
				
        
				<cc:license rdf:resource="http://creativecommons.org/licenses/by-nc-sa/3.0/"/>
				
        
				<dc:creator>
					
            
					<cc:Agent>
						
                
						<dc:title>
							Artem Oliynyk
						</dc:title>
						
            
					</cc:Agent>
					
        
				</dc:creator>
				
        
				<dc:rights>
					
            
					<cc:Agent>
						
                
						<dc:title>
							Artem Oliynyk
						</dc:title>
						
            
					</cc:Agent>
					
        
				</dc:rights>
				
        
				<dc:identifier>
					http://azure.km.ua/ua-vector-signs/7_Additional/ua_7.1.1_additional-object_distance_300m.svg
				</dc:identifier>
				
        
				<dc:language>
					uk-UA
				</dc:language>
				
        
				<dc:date>
					2010-04-24
				</dc:date>
				
    
			</cc:Work>
			<cc:License rdf:about="http://creativecommons.org/licenses/by-nc-sa/3.0/">
				
        
				<cc:permits rdf:resource="http://creativecommons.org/ns#Reproduction"/>
				
        
				<cc:permits rdf:resource="http://creativecommons.org/ns#Distribution"/>
				
        
				<cc:requires rdf:resource="http://creativecommons.org/ns#Notice"/>
				
        
				<cc:requires rdf:resource="http://creativecommons.org/ns#Attribution"/>
				
        
				<cc:prohibits rdf:resource="http://creativecommons.org/ns#CommercialUse"/>
				
        
				<cc:permits rdf:resource="http://creativecommons.org/ns#DerivativeWorks"/>
				
        
				<cc:requires rdf:resource="http://creativecommons.org/ns#ShareAlike"/>
				
    
			</cc:License>
		</rdf:RDF>
	</metadata>
	
	
  
	
	<g id="layer1" inkscape:groupmode="layer" inkscape:label="Layer 1" transform="translate(-327.3769,-522.39393)">
		
		
    
		
		<g id="g2396">
			
			
      
			
			<g id="g4113" transform="matrix(1.004091,0,0,1.004091,-1.7279595,-2.3314673)">
				
				
        
				
				<path class="fil2 str0" d="M 335.10577,522.58749 L 509.64911,522.58749 C 513.68636,522.58749 516.98985,526.80145 516.98985,531.95146 L 516.98985,607.8404 C 516.98985,612.99144 513.68636,617.20536 509.64911,617.20536 L 335.10577,617.20536 C 331.06746,617.20536 327.76398,612.99144 327.76398,607.8404 L 327.76398,531.95146 C 327.76398,526.80145 331.06746,522.58749 335.10577,522.58749 L 335.10577,522.58749 z" id="path2394" sodipodi:nodetypes="cccccccccc" style="fill:#ffffff;fill-rule:evenodd;stroke:#000000;stroke-width:0.00458754"/>
				
				
        
				
				<path class="fil2 str0" d="M 335.10577,522.58749 L 509.64911,522.58749 C 513.68636,522.58749 516.98985,526.80145 516.98985,531.95146 L 516.98985,607.8404 C 516.98985,612.99144 513.68636,617.20536 509.64911,617.20536 L 335.10577,617.20536 C 331.06746,617.20536 327.76398,612.99144 327.76398,607.8404 L 327.76398,531.95146 C 327.76398,526.80145 331.06746,522.58749 335.10577,522.58749 L 335.10577,522.58749 z M 336.11404,527.09866 L 508.64083,527.09866 C 510.68214,527.09866 512.35298,529.12359 512.35298,531.59847 L 512.35298,608.10563 C 512.35298,610.58052 510.68214,612.60649 508.64083,612.60649 L 336.11404,612.60649 C 334.07168,612.60649 332.40186,610.58052 332.40186,608.10563 L 332.40186,531.59847 C 332.40186,529.12359 334.07168,527.09866 336.11404,527.09866 z" id="_144408104" sodipodi:nodetypes="ccccccccccccccccccc" style="fill:#000000;fill-rule:evenodd;stroke:#000000;stroke-width:0.00458754"/>
				
				
        
				
				<g id="text4095" style="font-size:40px;font-style:normal;font-variant:normal;font-weight:normal;font-stretch:normal;text-align:start;line-height:125%;writing-mode:lr-tb;text-anchor:start;fill:#000000;fill-opacity:1;stroke:none;font-family:Bitstream Vera Sans;-inkscape-font-specification:Bitstream Vera Sans">
					
					
          
					
					<path d="m 348.71716,582.89233 8.5,-1.03125 c 0.27083,2.16668 0.99999,3.82293 2.1875,4.96875 1.18749,1.14584 2.62499,1.71876 4.3125,1.71875 1.81248,10e-6 3.33332,-0.68749 4.5625,-2.0625 1.24998,-1.37499 1.87498,-3.22915 1.875,-5.5625 -2e-5,-2.20831 -0.59377,-3.95831 -1.78125,-5.25 -1.18752,-1.29164 -2.63543,-1.93747 -4.34375,-1.9375 -1.12501,3e-5 -2.46876,0.21878 -4.03125,0.65625 l 0.96875,-7.15625 c 2.37499,0.0625 4.18748,-0.44788 5.4375,-1.53125 1.24998,-1.10413 1.87498,-2.56246 1.875,-4.375 -2e-5,-1.54163 -0.45835,-2.77079 -1.375,-3.6875 -0.91668,-0.91662 -2.13543,-1.37496 -3.65625,-1.375 -1.50001,4e-5 -2.78126,0.52088 -3.84375,1.5625 -1.06251,1.04171 -1.70834,2.56254 -1.9375,4.5625 l -8.09375,-1.375 c 0.5625,-2.77079 1.40625,-4.97912 2.53125,-6.625 1.14583,-1.66662 2.72916,-2.9687 4.75,-3.90625 2.04166,-0.95828 4.32291,-1.43745 6.84375,-1.4375 4.31248,5e-5 7.77081,1.37505 10.375,4.125 2.14581,2.25004 3.21872,4.79171 3.21875,7.625 -3e-5,4.02087 -2.19794,7.2292 -6.59375,9.625 2.62498,0.56253 4.71872,1.82294 6.28125,3.78125 1.5833,1.95836 2.37497,4.32294 2.375,7.09375 -3e-5,4.02085 -1.46878,7.44793 -4.40625,10.28125 -2.93752,2.83334 -6.59377,4.25 -10.96875,4.25 -4.14584,0 -7.58334,-1.1875 -10.3125,-3.5625 -2.72917,-2.39582 -4.3125,-5.52082 -4.75,-9.375" id="path2910" style="font-size:64px"/>
					
					
          
					
					<path d="m 399.49841,549.04858 c 4.43748,5e-5 7.90623,1.58338 10.40625,4.75 2.97914,3.75004 4.46872,9.96879 4.46875,18.65625 -3e-5,8.66668 -1.50003,14.89585 -4.5,18.6875 -2.47919,3.125 -5.93752,4.6875 -10.375,4.6875 -4.45834,0 -8.05209,-1.70833 -10.78125,-5.125 -2.72917,-3.43749 -4.09375,-9.55207 -4.09375,-18.34375 0,-8.62496 1.5,-14.83329 4.5,-18.625 2.47916,-3.12495 5.93749,-4.68745 10.375,-4.6875 m 0,7.28125 c -1.06251,4e-5 -2.01043,0.34379 -2.84375,1.03125 -0.83334,0.66671 -1.47918,1.87504 -1.9375,3.625 -0.60418,2.27087 -0.90626,6.09378 -0.90625,11.46875 -10e-6,5.37502 0.27082,9.07293 0.8125,11.09375 0.54166,2.00001 1.21874,3.33335 2.03125,4 0.83332,0.66668 1.78124,1.00001 2.84375,1 1.06248,10e-6 2.0104,-0.33332 2.84375,-1 0.83332,-0.68749 1.47915,-1.90624 1.9375,-3.65625 0.60415,-2.24998 0.90623,-6.06248 0.90625,-11.4375 -2e-5,-5.37497 -0.27085,-9.06246 -0.8125,-11.0625 -0.54169,-2.02079 -1.22918,-3.36454 -2.0625,-4.03125 -0.81252,-0.68746 -1.75002,-1.03121 -2.8125,-1.03125" id="path2912" style="font-size:64px"/>
					
					
          
					
					<path d="m 435.12341,549.04858 c 4.43748,5e-5 7.90623,1.58338 10.40625,4.75 2.97914,3.75004 4.46872,9.96879 4.46875,18.65625 -3e-5,8.66668 -1.50003,14.89585 -4.5,18.6875 -2.47919,3.125 -5.93752,4.6875 -10.375,4.6875 -4.45834,0 -8.05209,-1.70833 -10.78125,-5.125 -2.72917,-3.43749 -4.09375,-9.55207 -4.09375,-18.34375 0,-8.62496 1.5,-14.83329 4.5,-18.625 2.47916,-3.12495 5.93749,-4.68745 10.375,-4.6875 m 0,7.28125 c -1.06251,4e-5 -2.01043,0.34379 -2.84375,1.03125 -0.83334,0.66671 -1.47918,1.87504 -1.9375,3.625 -0.60418,2.27087 -0.90626,6.09378 -0.90625,11.46875 -10e-6,5.37502 0.27082,9.07293 0.8125,11.09375 0.54166,2.00001 1.21874,3.33335 2.03125,4 0.83332,0.66668 1.78124,1.00001 2.84375,1 1.06248,10e-6 2.0104,-0.33332 2.84375,-1 0.83332,-0.68749 1.47915,-1.90624 1.9375,-3.65625 0.60415,-2.24998 0.90623,-6.06248 0.90625,-11.4375 -2e-5,-5.37497 -0.27085,-9.06246 -0.8125,-11.0625 -0.54169,-2.02079 -1.22918,-3.36454 -2.0625,-4.03125 -0.81252,-0.68746 -1.75002,-1.03121 -2.8125,-1.03125" id="path2914" style="font-size:64px"/>
					
					
          
					
					<path d="m 458.02966,561.86108 10.875,0 8.25,23.125 8.3125,-23.125 10.84375,0 0,33.1875 -7.46875,0 0,-21.84375 -8.09375,21.84375 -7.5,0 -7.71875,-21.84375 0,21.84375 -7.5,0 0,-33.1875" id="path2916" style="font-size:64px"/>
					
					
        
				
				</g>
				
				
      
			
			</g>
			
			
    
		
		</g>
		
		
  
	
	</g>
	
	


</svg>
